<svg width="469" height="519" viewBox="0 0 469 519" fill="none" xmlns="http://www.w3.org/2000/svg">
<g filter="url(#filter0_b)">
<path d="M78.0785 148.993L14.3875 186.654L37.4282 225.697C37.8137 226.377 38.5392 226.864 39.7268 226.819L76.4922 226.448C78.8188 226.431 81.9029 224.502 83.2439 222.034L100.721 191.138C101.428 189.928 101.529 188.838 101.119 188.036L78.0785 148.993Z" fill="url(#paint0_linear)" fill-opacity="0.7"/>
</g>
<path d="M53.5244 187.453L16.759 187.824C14.4324 187.841 13.5422 185.875 14.907 183.529L32.3844 152.632C33.7492 150.286 36.7608 148.308 39.1361 148.218L75.9015 147.847C78.2281 147.83 79.1184 149.796 77.7535 152.142L60.2761 183.039C58.8626 185.458 55.851 187.436 53.5244 187.453Z" fill="url(#paint1_linear)"/>
<g filter="url(#filter1_b)">
<path d="M389.479 397.334L309.827 444.432L338.641 493.26C339.123 494.11 340.031 494.719 341.516 494.663L387.495 494.199C390.404 494.178 394.261 491.765 395.938 488.679L417.796 450.04C418.68 448.527 418.805 447.163 418.293 446.162L389.479 397.334Z" fill="url(#paint2_linear)" fill-opacity="0.7"/>
</g>
<path d="M358.77 445.433L312.792 445.897C309.882 445.918 308.769 443.46 310.475 440.525L332.333 401.886C334.04 398.951 337.806 396.477 340.776 396.365L386.755 395.901C389.665 395.88 390.778 398.338 389.071 401.273L367.214 439.912C365.446 442.937 361.68 445.411 358.77 445.433Z" fill="url(#paint3_linear)"/>
<path d="M35.4054 112.583L25.6051 74.0601C24.9453 71.5345 26.7837 70.1834 29.6055 70.9499L66.2837 81.3712C69.1055 82.1376 71.9536 84.8726 72.6135 87.3982L82.4137 125.921C83.0736 128.447 81.2351 129.798 78.4134 129.031L41.7351 118.61C38.8691 117.706 36.0652 115.109 35.4054 112.583Z" fill="url(#paint4_linear)"/>
<g filter="url(#filter2_b)">
<path d="M118.874 94.3234L61.5976 35.6792L25.6519 70.6687C25.0347 71.1795 24.7413 72.2114 24.9637 73.3902L35.0253 112.978C35.7029 115.573 38.5907 118.24 41.5445 119.166L79.3472 129.838C80.895 130.279 82.0735 130.056 82.8323 129.5L118.874 94.3234Z" fill="url(#paint5_linear)" fill-opacity="0.6"/>
</g>
<path d="M71.112 77.9425L61.0504 38.3548C60.3729 35.7595 62.2698 34.3687 65.1781 35.1535L102.981 45.8256C105.889 46.6103 108.822 49.4186 109.5 52.0139L119.562 91.6015C120.239 94.1969 118.342 95.5877 115.434 94.8029L77.6313 84.1308C74.6775 83.2044 71.7896 80.5378 71.112 77.9425Z" fill="url(#paint6_linear)"/>
<g filter="url(#filter3_b)">
<path d="M253.186 287.788L161.233 291.547L163.486 347.889C163.508 348.861 164.017 349.821 165.344 350.472L205.842 371.713C208.401 373.064 212.916 372.766 215.838 370.852L253.178 347.294C254.665 346.384 255.417 345.249 255.44 344.13L253.186 287.788Z" fill="url(#paint7_linear)" fill-opacity="0.7"/>
</g>
<path d="M203.639 315.466L163.141 294.225C160.582 292.874 160.764 290.196 163.641 288.428L200.981 264.87C203.858 263.103 208.323 262.709 210.978 264.009L251.476 285.25C254.035 286.602 253.852 289.28 250.975 291.047L213.635 314.605C210.662 316.424 206.198 316.818 203.639 315.466Z" fill="url(#paint8_linear)"/>
<path d="M149.569 410.582L110.131 389.568C107.533 388.205 107.801 385.654 110.574 383.889L147 361.291C149.772 359.526 154.202 359.229 156.8 360.592L196.238 381.606C198.836 382.969 198.568 385.52 195.795 387.285L159.37 409.883C156.449 411.581 152.168 411.945 149.569 410.582Z" fill="url(#paint9_linear)"/>
<g filter="url(#filter4_b)">
<path d="M197.573 327.383L105.475 330.6L107.348 386.962C107.306 387.862 107.941 388.887 109.089 389.594L149.61 411.196C152.28 412.598 156.682 412.216 159.688 410.462L197.173 387.12C198.71 386.167 199.418 385.019 199.53 383.967L197.573 327.383Z" fill="url(#paint10_linear)" fill-opacity="0.6"/>
</g>
<path d="M147.805 354.682L107.285 333.08C104.614 331.678 104.894 329.049 107.748 327.226L145.233 303.883C148.087 302.06 152.641 301.747 155.311 303.149L195.831 324.751C198.501 326.153 198.222 328.782 195.368 330.605L157.883 353.948C154.877 355.702 150.475 356.084 147.805 354.682Z" fill="url(#paint11_linear)"/>
<g filter="url(#filter5_b)">
<path d="M318.236 319.913L226.282 323.672L228.536 380.014C228.558 380.986 229.066 381.946 230.393 382.597L270.891 403.838C273.45 405.189 277.965 404.891 280.888 402.977L318.228 379.419C319.714 378.509 320.466 377.374 320.489 376.255L318.236 319.913Z" fill="url(#paint12_linear)" fill-opacity="0.7"/>
</g>
<path d="M268.688 347.592L228.19 326.351C225.631 324.999 225.814 322.321 228.691 320.554L266.031 296.996C268.908 295.228 273.372 294.834 276.027 296.135L316.525 317.376C319.084 318.727 318.902 321.405 316.025 323.173L278.685 346.731C275.712 348.549 271.247 348.943 268.688 347.592Z" fill="url(#paint13_linear)"/>
<g filter="url(#filter6_b)">
<path d="M262.536 356.298L170.582 360.056L172.836 416.398C172.858 417.37 173.366 418.331 174.694 418.981L215.192 440.222C217.751 441.573 222.266 441.275 225.188 439.361L262.528 415.803C264.014 414.894 264.767 413.758 264.79 412.64L262.536 356.298Z" fill="url(#paint14_linear)" fill-opacity="0.7"/>
</g>
<path d="M212.989 383.976L172.491 362.735C169.932 361.384 170.114 358.706 172.991 356.938L210.331 333.38C213.208 331.612 217.672 331.219 220.327 332.519L260.825 353.76C263.384 355.111 263.202 357.789 260.325 359.557L222.985 383.115C220.012 384.933 215.548 385.327 212.989 383.976Z" fill="url(#paint15_linear)"/>
<g filter="url(#filter7_b)">
<path fill-rule="evenodd" clip-rule="evenodd" d="M158.825 311.868C158.825 314.879 154.611 317.32 149.412 317.32C144.236 317.32 140.035 314.9 140 311.906H140V306.453H148.298C148.663 306.428 149.035 306.416 149.412 306.416C149.789 306.416 150.161 306.428 150.527 306.453H158.788V311.383C158.812 311.543 158.825 311.704 158.825 311.868Z" fill="#FB3FE6"/>
</g>
<path d="M149.412 311.905C154.611 311.905 158.825 309.464 158.825 306.452C158.825 303.441 154.611 301 149.412 301C144.214 301 140 303.441 140 306.452C140 309.464 144.214 311.905 149.412 311.905Z" fill="#DD009F"/>
<g filter="url(#filter8_b)">
<path fill-rule="evenodd" clip-rule="evenodd" d="M134.825 326.868C134.825 329.879 130.611 332.32 125.412 332.32C120.236 332.32 116.035 329.9 116 326.906H116V321.453H124.298C124.663 321.428 125.035 321.416 125.412 321.416C125.789 321.416 126.161 321.428 126.527 321.453H134.788V326.383C134.812 326.543 134.825 326.704 134.825 326.868Z" fill="#FB3FE6"/>
</g>
<path d="M125.412 326.905C130.611 326.905 134.825 324.464 134.825 321.452C134.825 318.441 130.611 316 125.412 316C120.214 316 116 318.441 116 321.452C116 324.464 120.214 326.905 125.412 326.905Z" fill="#DD009F"/>
<g filter="url(#filter9_b)">
<path fill-rule="evenodd" clip-rule="evenodd" d="M186.825 324.868C186.825 327.879 182.611 330.32 177.412 330.32C172.236 330.32 168.035 327.9 168 324.906H168V319.453H176.298C176.663 319.428 177.035 319.416 177.412 319.416C177.789 319.416 178.161 319.428 178.527 319.453H186.788V324.383C186.812 324.543 186.825 324.704 186.825 324.868Z" fill="#FB3FE6"/>
</g>
<path d="M177.412 324.905C182.611 324.905 186.825 322.464 186.825 319.452C186.825 316.441 182.611 314 177.412 314C172.214 314 168 316.441 168 319.452C168 322.464 172.214 324.905 177.412 324.905Z" fill="#DD009F"/>
<g filter="url(#filter10_b)">
<path fill-rule="evenodd" clip-rule="evenodd" d="M161.825 339.868C161.825 342.879 157.611 345.32 152.412 345.32C147.236 345.32 143.035 342.9 143 339.906H143V334.453H151.298C151.663 334.428 152.035 334.416 152.412 334.416C152.789 334.416 153.161 334.428 153.527 334.453H161.788V339.383C161.812 339.543 161.825 339.704 161.825 339.868Z" fill="#FB3FE6"/>
</g>
<path d="M152.412 339.905C157.611 339.905 161.825 337.464 161.825 334.452C161.825 331.441 157.611 329 152.412 329C147.214 329 143 331.441 143 334.452C143 337.464 147.214 339.905 152.412 339.905Z" fill="#DD009F"/>
<path d="M227.715 287.767L222.141 288.761V288.737L237.315 260.058L215.173 246.881L219.199 240.06L245.057 255.562L227.715 287.962V287.767Z" fill="#FCFCFC"/>
<path d="M208.825 280.831L222.141 288.737L237.315 260.058L223.999 252.307L208.825 280.831Z" fill="#E7E7E7"/>
<g filter="url(#filter11_b)">
<path d="M399.43 54.1847C396.488 55.89 393.391 56.9752 390.604 56.9752L284.85 60.3857C274.476 60.6958 269.986 48.9139 274.941 34.0315C279.896 19.1491 292.283 6.74709 302.812 6.43704L408.565 3.02649C418.939 2.71644 423.43 14.4983 418.475 29.3807C414.759 40.0774 407.327 49.534 399.43 54.1847Z" fill="url(#paint16_linear)" fill-opacity="0.5"/>
</g>
<g filter="url(#filter12_b)">
<path d="M404.075 56.82C401.133 58.5252 398.036 59.6104 395.249 59.6104L289.495 63.021C279.121 63.331 274.631 51.5491 279.586 36.6667C284.541 21.7843 296.928 9.38234 307.457 9.07229L413.21 5.66174C423.584 5.35169 428.075 17.1336 423.12 32.016C419.404 42.8677 411.972 52.3242 404.075 56.82Z" fill="url(#paint17_linear)" fill-opacity="0.5"/>
</g>
<g filter="url(#filter13_b)">
<path d="M460.901 20.8543L428.695 2.40631C428.54 2.40631 428.54 2.25129 428.385 2.25129C423.275 -0.694187 416.463 -0.229112 408.721 4.26661C404.076 7.05706 399.585 10.9327 395.714 15.5834C390.76 21.4744 386.579 28.6055 383.947 36.0467L447.43 72.7876L460.901 20.8543Z" fill="url(#paint18_linear)"/>
</g>
<g filter="url(#filter14_b)">
<path d="M384.102 35.8916C382.089 41.4725 381.005 47.2084 381.005 52.4793V252.771L413.366 271.374L413.825 72.4775L384.102 35.8916Z" fill="url(#paint19_linear)"/>
</g>
<g filter="url(#filter15_b)">
<path fill-rule="evenodd" clip-rule="evenodd" d="M298.321 11.8629C306.837 7.05709 314.115 8.60734 317.521 15.1184C318.605 17.4438 319.224 20.3892 319.379 23.9548C319.379 37.2869 310.089 53.5646 298.476 60.2306L207.122 112.939L180.026 97.2816C182.658 85.9648 190.555 74.1829 200 68.757L298.321 11.8629ZM180.026 97.2816L180.026 97.2816C179.406 99.917 179.097 102.552 179.097 105.033C179.097 118.365 188.387 123.791 200 117.125L207.122 113.094L180.026 97.2816Z" fill="url(#paint20_linear)" fill-opacity="0.5"/>
</g>
<g filter="url(#filter16_b)">
<path d="M323.869 26.5903C323.869 39.9224 314.579 56.2 302.966 62.8661L204.645 119.76C193.187 126.426 183.742 121 183.742 107.668C183.742 94.3361 193.032 78.0585 204.645 71.3925L302.966 14.6534C311.482 9.69256 318.76 11.2428 322.166 17.9089C323.25 20.2343 323.869 23.1797 323.869 26.5903Z" fill="url(#paint21_linear)" fill-opacity="0.5"/>
</g>
<g filter="url(#filter17_b)">
<path fill-rule="evenodd" clip-rule="evenodd" d="M214.245 70.1524C220.593 70.7725 224.773 76.0433 224.773 85.0348V123.171L224.774 123.171V172.004C224.774 185.336 215.484 201.613 203.871 208.28C192.258 214.946 182.968 209.52 182.968 196.188V109.219C182.968 106.118 183.432 103.018 184.361 99.7623L184.361 99.7621C187.303 89.0654 194.89 78.2137 203.87 72.9428C207.587 70.7725 211.148 69.8423 214.245 70.1524Z" fill="url(#paint22_linear)" fill-opacity="0.5"/>
</g>
<g filter="url(#filter18_b)">
<path d="M229.419 87.8248V174.794C229.419 188.126 220.129 204.404 208.516 211.07C196.904 217.736 187.613 212.31 187.613 198.978V112.009C187.613 98.6765 196.904 82.3989 208.516 75.7329C212.232 73.5625 215.794 72.6324 218.89 72.9424C225.084 73.4075 229.419 78.8334 229.419 87.8248Z" fill="url(#paint23_linear)" fill-opacity="0.5"/>
</g>
<g filter="url(#filter19_b)">
<path fill-rule="evenodd" clip-rule="evenodd" d="M212.232 173.864V195.878L212.387 203.784L212.258 203.709V225.332C212.258 233.549 206.374 243.625 199.252 247.811C195.69 249.981 192.439 250.136 190.116 248.741C187.794 247.346 186.4 244.555 186.4 240.37V188.901V188.761L186.375 188.746C186.375 186.421 186.839 183.941 187.613 181.615C189.626 175.414 194.116 169.368 199.226 166.423C206.348 162.237 212.232 165.493 212.232 173.864Z" fill="url(#paint24_linear)" fill-opacity="0.5"/>
</g>
<g filter="url(#filter20_b)">
<path d="M216.258 176.344V227.812C216.258 236.184 210.374 246.26 203.251 250.291C199.69 252.306 196.439 252.616 194.116 251.221C191.793 249.826 190.4 246.88 190.4 242.85V191.382C190.4 183.01 196.284 172.934 203.406 168.903C210.374 164.717 216.258 168.128 216.258 176.344Z" fill="url(#paint25_linear)" fill-opacity="0.5"/>
</g>
<path d="M201.858 234.479L215.174 242.385L189.316 287.652L176 279.901L201.858 234.479Z" fill="#F5F5F5"/>
<path d="M176 279.901L189.316 287.652L206.503 300.209L193.187 292.303L176 279.901Z" fill="#C4C4C4"/>
<path d="M212.077 294.652L206.503 300.013V300.209L189.316 287.652L215.174 242.385L219.199 244.555L196.903 283.466L212.077 294.473V294.652Z" fill="#FCFCFC"/>
<g filter="url(#filter21_b)">
<path d="M217.187 176.964C224.309 172.779 230.193 176.189 230.193 184.406V235.874C230.193 244.245 224.309 254.322 217.187 258.353C213.625 260.368 210.374 260.678 208.051 259.283C205.729 257.887 204.335 254.942 204.335 250.911V199.443C204.18 191.072 209.909 180.995 217.187 176.964Z" fill="url(#paint26_linear)" fill-opacity="0.5"/>
</g>
<g filter="url(#filter22_b)">
<path d="M221.832 179.6C228.955 175.414 234.838 178.825 234.838 187.041V238.509C234.838 246.881 228.955 256.957 221.832 260.988C218.271 263.003 215.019 263.313 212.697 261.918C210.374 260.523 208.981 257.577 208.981 253.547V202.078C208.826 193.862 214.555 183.785 221.832 179.6Z" fill="url(#paint27_linear)" fill-opacity="0.5"/>
</g>
<g filter="url(#filter23_b)">
<path fill-rule="evenodd" clip-rule="evenodd" d="M236.85 83.3291C243.199 83.9492 247.379 89.2201 247.379 98.2115V136.192L247.38 136.193V185.18C247.38 198.513 238.09 214.79 226.477 221.456C214.864 228.122 205.574 222.697 205.574 209.364V122.395C205.574 119.45 206.038 116.195 206.967 112.939L206.967 112.939C209.909 102.087 217.496 91.3904 226.476 86.1196C230.192 83.9492 233.754 83.0191 236.85 83.3291Z" fill="url(#paint28_linear)" fill-opacity="0.5"/>
</g>
<g filter="url(#filter24_b)">
<path d="M252.025 101.002V187.971C252.025 201.303 242.735 217.581 231.122 224.247C219.664 230.913 210.219 225.487 210.219 212.155V125.031C210.219 111.699 219.509 95.4214 231.122 88.7553C234.993 86.585 238.4 85.6548 241.496 85.9649C242.89 86.1199 244.129 86.4299 245.367 87.05C249.393 89.2204 252.025 94.0262 252.025 101.002Z" fill="url(#paint29_linear)" fill-opacity="0.5"/>
</g>
<g filter="url(#filter25_b)">
<path d="M468.952 38.837V239.129L413.21 271.374V71.0822C413.21 59.6103 418.475 46.4332 426.217 36.2016C426.836 35.4265 427.301 34.8064 427.92 34.0312C431.791 29.3805 436.281 25.5049 440.926 22.7144C448.668 18.2187 455.481 17.9086 460.591 20.6991C465.855 23.7996 468.952 30.0006 468.952 38.837Z" fill="url(#paint30_linear)" fill-opacity="0.5"/>
</g>
<g filter="url(#filter26_b)">
<path fill-rule="evenodd" clip-rule="evenodd" d="M252.024 101.002V131.542L231.896 143.169C220.438 149.835 210.993 144.409 210.993 131.077C210.993 131.043 210.993 131.009 210.993 130.976V123.636C210.993 121 211.303 118.365 211.922 115.729L213.954 116.916C217.595 107.765 224.241 99.1951 231.896 94.8011L245.212 87.0498C249.392 89.2202 252.024 94.0259 252.024 101.002Z" fill="url(#paint31_linear)" fill-opacity="0.5"/>
</g>
<g filter="url(#filter27_b)">
<path d="M349.262 33.7213C346.011 27.2103 338.733 25.505 330.217 30.4658L231.896 87.3599C222.606 92.7858 214.554 104.413 211.922 115.884L239.018 131.542L330.217 78.8335C341.83 72.1675 351.12 55.8899 351.12 42.5577C351.12 38.9921 350.501 36.0467 349.262 33.7213Z" fill="url(#paint32_linear)" fill-opacity="0.5"/>
</g>
<g filter="url(#filter28_b)">
<path d="M355.766 45.193C355.766 58.5251 346.476 74.8027 334.863 81.4688L236.541 138.363C224.928 145.029 215.638 139.603 215.638 126.271C215.638 112.939 224.928 96.6612 236.541 89.9952L334.863 33.101C343.379 28.1402 350.656 29.8455 353.908 36.3566C355.146 38.837 355.766 41.7824 355.766 45.193Z" fill="url(#paint33_linear)" fill-opacity="0.5"/>
</g>
<g filter="url(#filter29_b)">
<path fill-rule="evenodd" clip-rule="evenodd" d="M440.616 78.0587C437.675 79.764 434.733 80.6942 431.791 80.8492L352.196 83.4798L352.205 83.4846L326.037 84.2597C316.437 84.5698 311.947 74.9582 314.889 61.9361L314.889 61.9361C315.198 60.5409 315.508 59.3007 315.973 57.9055C320.927 43.0231 333.469 30.6211 343.843 30.3111L449.597 26.9005C459.971 26.5905 464.461 38.3724 459.507 53.2547C455.945 64.1065 448.513 73.563 440.616 78.0587Z" fill="url(#paint34_linear)" fill-opacity="0.5"/>
</g>
<g filter="url(#filter30_b)">
<path d="M445.262 80.694C442.32 82.3993 439.223 83.4844 436.436 83.4844L330.682 86.895C320.308 87.205 315.818 75.4231 320.773 60.5407C325.728 45.6584 338.115 33.2564 348.644 32.9463L454.397 29.5358C464.771 29.2257 469.262 41.0076 464.307 55.89C460.591 66.7417 453.159 76.1983 445.262 80.694Z" fill="url(#paint35_linear)" fill-opacity="0.5"/>
</g>
<defs>
<filter id="filter0_b" x="-10.6509" y="117.218" width="140.115" height="142.75" filterUnits="userSpaceOnUse" color-interpolation-filters="sRGB">
<feFlood flood-opacity="0" result="BackgroundImageFix"/>
<feGaussianBlur in="BackgroundImage" stdDeviation="7"/>
<feComposite in2="SourceAlpha" operator="in" result="effect1_backgroundBlur"/>
<feBlend mode="normal" in="SourceGraphic" in2="effect1_backgroundBlur" result="shape"/>
</filter>
<filter id="filter1_b" x="282.022" y="361.104" width="168.211" height="171.506" filterUnits="userSpaceOnUse" color-interpolation-filters="sRGB">
<feFlood flood-opacity="0" result="BackgroundImageFix"/>
<feGaussianBlur in="BackgroundImage" stdDeviation="7"/>
<feComposite in2="SourceAlpha" operator="in" result="effect1_backgroundBlur"/>
<feBlend mode="normal" in="SourceGraphic" in2="effect1_backgroundBlur" result="shape"/>
</filter>
<filter id="filter2_b" x="0.994141" y="10.4863" width="138.795" height="145.525" filterUnits="userSpaceOnUse" color-interpolation-filters="sRGB">
<feFlood flood-opacity="0" result="BackgroundImageFix"/>
<feGaussianBlur in="BackgroundImage" stdDeviation="7"/>
<feComposite in2="SourceAlpha" operator="in" result="effect1_backgroundBlur"/>
<feBlend mode="normal" in="SourceGraphic" in2="effect1_backgroundBlur" result="shape"/>
</filter>
<filter id="filter3_b" x="125.457" y="238.724" width="167.912" height="162.911" filterUnits="userSpaceOnUse" color-interpolation-filters="sRGB">
<feFlood flood-opacity="0" result="BackgroundImageFix"/>
<feGaussianBlur in="BackgroundImage" stdDeviation="7"/>
<feComposite in2="SourceAlpha" operator="in" result="effect1_backgroundBlur"/>
<feBlend mode="normal" in="SourceGraphic" in2="effect1_backgroundBlur" result="shape"/>
</filter>
<filter id="filter4_b" x="68.6426" y="279.168" width="166.054" height="160.259" filterUnits="userSpaceOnUse" color-interpolation-filters="sRGB">
<feFlood flood-opacity="0" result="BackgroundImageFix"/>
<feGaussianBlur in="BackgroundImage" stdDeviation="7"/>
<feComposite in2="SourceAlpha" operator="in" result="effect1_backgroundBlur"/>
<feBlend mode="normal" in="SourceGraphic" in2="effect1_backgroundBlur" result="shape"/>
</filter>
<filter id="filter5_b" x="190.506" y="270.849" width="167.912" height="162.911" filterUnits="userSpaceOnUse" color-interpolation-filters="sRGB">
<feFlood flood-opacity="0" result="BackgroundImageFix"/>
<feGaussianBlur in="BackgroundImage" stdDeviation="7"/>
<feComposite in2="SourceAlpha" operator="in" result="effect1_backgroundBlur"/>
<feBlend mode="normal" in="SourceGraphic" in2="effect1_backgroundBlur" result="shape"/>
</filter>
<filter id="filter6_b" x="134.807" y="307.233" width="167.912" height="162.911" filterUnits="userSpaceOnUse" color-interpolation-filters="sRGB">
<feFlood flood-opacity="0" result="BackgroundImageFix"/>
<feGaussianBlur in="BackgroundImage" stdDeviation="7"/>
<feComposite in2="SourceAlpha" operator="in" result="effect1_backgroundBlur"/>
<feBlend mode="normal" in="SourceGraphic" in2="effect1_backgroundBlur" result="shape"/>
</filter>
<filter id="filter7_b" x="126" y="292.416" width="46.8248" height="38.9048" filterUnits="userSpaceOnUse" color-interpolation-filters="sRGB">
<feFlood flood-opacity="0" result="BackgroundImageFix"/>
<feGaussianBlur in="BackgroundImage" stdDeviation="7"/>
<feComposite in2="SourceAlpha" operator="in" result="effect1_backgroundBlur"/>
<feBlend mode="normal" in="SourceGraphic" in2="effect1_backgroundBlur" result="shape"/>
</filter>
<filter id="filter8_b" x="102" y="307.416" width="46.8248" height="38.9048" filterUnits="userSpaceOnUse" color-interpolation-filters="sRGB">
<feFlood flood-opacity="0" result="BackgroundImageFix"/>
<feGaussianBlur in="BackgroundImage" stdDeviation="7"/>
<feComposite in2="SourceAlpha" operator="in" result="effect1_backgroundBlur"/>
<feBlend mode="normal" in="SourceGraphic" in2="effect1_backgroundBlur" result="shape"/>
</filter>
<filter id="filter9_b" x="154" y="305.416" width="46.8248" height="38.9048" filterUnits="userSpaceOnUse" color-interpolation-filters="sRGB">
<feFlood flood-opacity="0" result="BackgroundImageFix"/>
<feGaussianBlur in="BackgroundImage" stdDeviation="7"/>
<feComposite in2="SourceAlpha" operator="in" result="effect1_backgroundBlur"/>
<feBlend mode="normal" in="SourceGraphic" in2="effect1_backgroundBlur" result="shape"/>
</filter>
<filter id="filter10_b" x="129" y="320.416" width="46.8248" height="38.9048" filterUnits="userSpaceOnUse" color-interpolation-filters="sRGB">
<feFlood flood-opacity="0" result="BackgroundImageFix"/>
<feGaussianBlur in="BackgroundImage" stdDeviation="7"/>
<feComposite in2="SourceAlpha" operator="in" result="effect1_backgroundBlur"/>
<feBlend mode="normal" in="SourceGraphic" in2="effect1_backgroundBlur" result="shape"/>
</filter>
<filter id="filter11_b" x="258.922" y="-10.9795" width="175.572" height="85.3712" filterUnits="userSpaceOnUse" color-interpolation-filters="sRGB">
<feFlood flood-opacity="0" result="BackgroundImageFix"/>
<feGaussianBlur in="BackgroundImage" stdDeviation="7"/>
<feComposite in2="SourceAlpha" operator="in" result="effect1_backgroundBlur"/>
<feBlend mode="normal" in="SourceGraphic" in2="effect1_backgroundBlur" result="shape"/>
</filter>
<filter id="filter12_b" x="263.567" y="-8.34424" width="175.572" height="85.3712" filterUnits="userSpaceOnUse" color-interpolation-filters="sRGB">
<feFlood flood-opacity="0" result="BackgroundImageFix"/>
<feGaussianBlur in="BackgroundImage" stdDeviation="7"/>
<feComposite in2="SourceAlpha" operator="in" result="effect1_backgroundBlur"/>
<feBlend mode="normal" in="SourceGraphic" in2="effect1_backgroundBlur" result="shape"/>
</filter>
<filter id="filter13_b" x="369.947" y="-13.6094" width="104.954" height="100.397" filterUnits="userSpaceOnUse" color-interpolation-filters="sRGB">
<feFlood flood-opacity="0" result="BackgroundImageFix"/>
<feGaussianBlur in="BackgroundImage" stdDeviation="7"/>
<feComposite in2="SourceAlpha" operator="in" result="effect1_backgroundBlur"/>
<feBlend mode="normal" in="SourceGraphic" in2="effect1_backgroundBlur" result="shape"/>
</filter>
<filter id="filter14_b" x="367.005" y="21.8916" width="60.8199" height="263.483" filterUnits="userSpaceOnUse" color-interpolation-filters="sRGB">
<feFlood flood-opacity="0" result="BackgroundImageFix"/>
<feGaussianBlur in="BackgroundImage" stdDeviation="7"/>
<feComposite in2="SourceAlpha" operator="in" result="effect1_backgroundBlur"/>
<feBlend mode="normal" in="SourceGraphic" in2="effect1_backgroundBlur" result="shape"/>
</filter>
<filter id="filter15_b" x="165.097" y="-4.94287" width="168.283" height="138.918" filterUnits="userSpaceOnUse" color-interpolation-filters="sRGB">
<feFlood flood-opacity="0" result="BackgroundImageFix"/>
<feGaussianBlur in="BackgroundImage" stdDeviation="7"/>
<feComposite in2="SourceAlpha" operator="in" result="effect1_backgroundBlur"/>
<feBlend mode="normal" in="SourceGraphic" in2="effect1_backgroundBlur" result="shape"/>
</filter>
<filter id="filter16_b" x="169.742" y="-2.26367" width="168.128" height="138.875" filterUnits="userSpaceOnUse" color-interpolation-filters="sRGB">
<feFlood flood-opacity="0" result="BackgroundImageFix"/>
<feGaussianBlur in="BackgroundImage" stdDeviation="7"/>
<feComposite in2="SourceAlpha" operator="in" result="effect1_backgroundBlur"/>
<feBlend mode="normal" in="SourceGraphic" in2="effect1_backgroundBlur" result="shape"/>
</filter>
<filter id="filter17_b" x="168.968" y="56.0942" width="69.806" height="169.036" filterUnits="userSpaceOnUse" color-interpolation-filters="sRGB">
<feFlood flood-opacity="0" result="BackgroundImageFix"/>
<feGaussianBlur in="BackgroundImage" stdDeviation="7"/>
<feComposite in2="SourceAlpha" operator="in" result="effect1_backgroundBlur"/>
<feBlend mode="normal" in="SourceGraphic" in2="effect1_backgroundBlur" result="shape"/>
</filter>
<filter id="filter18_b" x="173.613" y="58.8843" width="69.806" height="169.036" filterUnits="userSpaceOnUse" color-interpolation-filters="sRGB">
<feFlood flood-opacity="0" result="BackgroundImageFix"/>
<feGaussianBlur in="BackgroundImage" stdDeviation="7"/>
<feComposite in2="SourceAlpha" operator="in" result="effect1_backgroundBlur"/>
<feBlend mode="normal" in="SourceGraphic" in2="effect1_backgroundBlur" result="shape"/>
</filter>
<filter id="filter19_b" x="172.375" y="150.602" width="54.0126" height="113.043" filterUnits="userSpaceOnUse" color-interpolation-filters="sRGB">
<feFlood flood-opacity="0" result="BackgroundImageFix"/>
<feGaussianBlur in="BackgroundImage" stdDeviation="7"/>
<feComposite in2="SourceAlpha" operator="in" result="effect1_backgroundBlur"/>
<feBlend mode="normal" in="SourceGraphic" in2="effect1_backgroundBlur" result="shape"/>
</filter>
<filter id="filter20_b" x="176.4" y="153.11" width="53.8578" height="112.967" filterUnits="userSpaceOnUse" color-interpolation-filters="sRGB">
<feFlood flood-opacity="0" result="BackgroundImageFix"/>
<feGaussianBlur in="BackgroundImage" stdDeviation="7"/>
<feComposite in2="SourceAlpha" operator="in" result="effect1_backgroundBlur"/>
<feBlend mode="normal" in="SourceGraphic" in2="effect1_backgroundBlur" result="shape"/>
</filter>
<filter id="filter21_b" x="190.332" y="161.171" width="53.8609" height="112.967" filterUnits="userSpaceOnUse" color-interpolation-filters="sRGB">
<feFlood flood-opacity="0" result="BackgroundImageFix"/>
<feGaussianBlur in="BackgroundImage" stdDeviation="7"/>
<feComposite in2="SourceAlpha" operator="in" result="effect1_backgroundBlur"/>
<feBlend mode="normal" in="SourceGraphic" in2="effect1_backgroundBlur" result="shape"/>
</filter>
<filter id="filter22_b" x="194.978" y="163.807" width="53.8609" height="112.967" filterUnits="userSpaceOnUse" color-interpolation-filters="sRGB">
<feFlood flood-opacity="0" result="BackgroundImageFix"/>
<feGaussianBlur in="BackgroundImage" stdDeviation="7"/>
<feComposite in2="SourceAlpha" operator="in" result="effect1_backgroundBlur"/>
<feBlend mode="normal" in="SourceGraphic" in2="effect1_backgroundBlur" result="shape"/>
</filter>
<filter id="filter23_b" x="191.574" y="69.271" width="69.806" height="169.036" filterUnits="userSpaceOnUse" color-interpolation-filters="sRGB">
<feFlood flood-opacity="0" result="BackgroundImageFix"/>
<feGaussianBlur in="BackgroundImage" stdDeviation="7"/>
<feComposite in2="SourceAlpha" operator="in" result="effect1_backgroundBlur"/>
<feBlend mode="normal" in="SourceGraphic" in2="effect1_backgroundBlur" result="shape"/>
</filter>
<filter id="filter24_b" x="196.219" y="71.9067" width="69.806" height="169.191" filterUnits="userSpaceOnUse" color-interpolation-filters="sRGB">
<feFlood flood-opacity="0" result="BackgroundImageFix"/>
<feGaussianBlur in="BackgroundImage" stdDeviation="7"/>
<feComposite in2="SourceAlpha" operator="in" result="effect1_backgroundBlur"/>
<feBlend mode="normal" in="SourceGraphic" in2="effect1_backgroundBlur" result="shape"/>
</filter>
<filter id="filter25_b" x="399.21" y="4.9043" width="83.7413" height="280.47" filterUnits="userSpaceOnUse" color-interpolation-filters="sRGB">
<feFlood flood-opacity="0" result="BackgroundImageFix"/>
<feGaussianBlur in="BackgroundImage" stdDeviation="7"/>
<feComposite in2="SourceAlpha" operator="in" result="effect1_backgroundBlur"/>
<feBlend mode="normal" in="SourceGraphic" in2="effect1_backgroundBlur" result="shape"/>
</filter>
<filter id="filter26_b" x="196.993" y="73.0498" width="69.0318" height="86.9698" filterUnits="userSpaceOnUse" color-interpolation-filters="sRGB">
<feFlood flood-opacity="0" result="BackgroundImageFix"/>
<feGaussianBlur in="BackgroundImage" stdDeviation="7"/>
<feComposite in2="SourceAlpha" operator="in" result="effect1_backgroundBlur"/>
<feBlend mode="normal" in="SourceGraphic" in2="effect1_backgroundBlur" result="shape"/>
</filter>
<filter id="filter27_b" x="197.922" y="13.5928" width="167.199" height="131.949" filterUnits="userSpaceOnUse" color-interpolation-filters="sRGB">
<feFlood flood-opacity="0" result="BackgroundImageFix"/>
<feGaussianBlur in="BackgroundImage" stdDeviation="7"/>
<feComposite in2="SourceAlpha" operator="in" result="effect1_backgroundBlur"/>
<feBlend mode="normal" in="SourceGraphic" in2="effect1_backgroundBlur" result="shape"/>
</filter>
<filter id="filter28_b" x="201.638" y="16.228" width="168.128" height="138.986" filterUnits="userSpaceOnUse" color-interpolation-filters="sRGB">
<feFlood flood-opacity="0" result="BackgroundImageFix"/>
<feGaussianBlur in="BackgroundImage" stdDeviation="7"/>
<feComposite in2="SourceAlpha" operator="in" result="effect1_backgroundBlur"/>
<feBlend mode="normal" in="SourceGraphic" in2="effect1_backgroundBlur" result="shape"/>
</filter>
<filter id="filter29_b" x="299.997" y="12.8945" width="175.529" height="85.3725" filterUnits="userSpaceOnUse" color-interpolation-filters="sRGB">
<feFlood flood-opacity="0" result="BackgroundImageFix"/>
<feGaussianBlur in="BackgroundImage" stdDeviation="7"/>
<feComposite in2="SourceAlpha" operator="in" result="effect1_backgroundBlur"/>
<feBlend mode="normal" in="SourceGraphic" in2="effect1_backgroundBlur" result="shape"/>
</filter>
<filter id="filter30_b" x="304.754" y="15.5298" width="175.572" height="85.3712" filterUnits="userSpaceOnUse" color-interpolation-filters="sRGB">
<feFlood flood-opacity="0" result="BackgroundImageFix"/>
<feGaussianBlur in="BackgroundImage" stdDeviation="7"/>
<feComposite in2="SourceAlpha" operator="in" result="effect1_backgroundBlur"/>
<feBlend mode="normal" in="SourceGraphic" in2="effect1_backgroundBlur" result="shape"/>
</filter>
<linearGradient id="paint0_linear" x1="55.7897" y1="200.944" x2="143.942" y2="148.877" gradientUnits="userSpaceOnUse">
<stop stop-color="#3A9BD5"/>
<stop offset="0.1172" stop-color="#3490CE"/>
<stop offset="0.367" stop-color="#2C80C3"/>
<stop offset="0.6442" stop-color="#2776BC"/>
<stop offset="1" stop-color="#2573BA"/>
</linearGradient>
<linearGradient id="paint1_linear" x1="-6.87289" y1="142.067" x2="121.705" y2="204.448" gradientUnits="userSpaceOnUse">
<stop stop-color="#59BDEF"/>
<stop offset="1" stop-color="#7BDAFF"/>
</linearGradient>
<linearGradient id="paint2_linear" x1="361.604" y1="462.304" x2="471.848" y2="397.189" gradientUnits="userSpaceOnUse">
<stop stop-color="#3A9BD5"/>
<stop offset="0.1172" stop-color="#3490CE"/>
<stop offset="0.367" stop-color="#2C80C3"/>
<stop offset="0.6442" stop-color="#2776BC"/>
<stop offset="1" stop-color="#2573BA"/>
</linearGradient>
<linearGradient id="paint3_linear" x1="283.238" y1="388.673" x2="444.037" y2="466.686" gradientUnits="userSpaceOnUse">
<stop stop-color="#59BDEF"/>
<stop offset="1" stop-color="#7BDAFF"/>
</linearGradient>
<linearGradient id="paint4_linear" x1="67.2981" y1="37.8555" x2="34.5706" y2="188.282" gradientUnits="userSpaceOnUse">
<stop offset="0.4032" stop-color="#FC04B7"/>
<stop offset="0.5099" stop-color="#FC04C5"/>
<stop offset="0.6558" stop-color="#FD05C6"/>
<stop offset="0.813" stop-color="#FD05C6"/>
<stop offset="1" stop-color="#FD05C6"/>
</linearGradient>
<linearGradient id="paint5_linear" x1="35.2203" y1="61.4886" x2="92.4419" y2="120.173" gradientUnits="userSpaceOnUse">
<stop offset="0.4032" stop-color="#FD05E4"/>
<stop offset="0.423" stop-color="#FA05E1"/>
<stop offset="0.5505" stop-color="#EC03B9"/>
<stop offset="0.6846" stop-color="#E201B0"/>
<stop offset="0.8286" stop-color="#DC00AC"/>
<stop offset="1" stop-color="#DA00B7"/>
</linearGradient>
<linearGradient id="paint6_linear" x1="104.074" y1="1.09398" x2="70.6584" y2="155.861" gradientUnits="userSpaceOnUse">
<stop offset="0.4032" stop-color="#FC04B7"/>
<stop offset="0.5099" stop-color="#FC04C5"/>
<stop offset="0.6558" stop-color="#FD05C6"/>
<stop offset="0.813" stop-color="#FD05C6"/>
<stop offset="1" stop-color="#FD05C6"/>
</linearGradient>
<linearGradient id="paint7_linear" x1="198.178" y1="331.581" x2="325.413" y2="326.443" gradientUnits="userSpaceOnUse">
<stop stop-color="#3A9BD5"/>
<stop offset="0.1172" stop-color="#3490CE"/>
<stop offset="0.367" stop-color="#2C80C3"/>
<stop offset="0.6442" stop-color="#2776BC"/>
<stop offset="1" stop-color="#2573BA"/>
</linearGradient>
<linearGradient id="paint8_linear" x1="164.193" y1="230.18" x2="268.33" y2="374.231" gradientUnits="userSpaceOnUse">
<stop stop-color="#59BDEF"/>
<stop offset="1" stop-color="#7BDAFF"/>
</linearGradient>
<linearGradient id="paint9_linear" x1="111.598" y1="327.509" x2="211.856" y2="468.575" gradientUnits="userSpaceOnUse">
<stop offset="0.4032" stop-color="#FC04B7"/>
<stop offset="0.5099" stop-color="#FC04C5"/>
<stop offset="0.6558" stop-color="#FD05C6"/>
<stop offset="0.813" stop-color="#FD05C6"/>
<stop offset="1" stop-color="#FD05C6"/>
</linearGradient>
<linearGradient id="paint10_linear" x1="106.961" y1="372.06" x2="199.051" y2="368.919" gradientUnits="userSpaceOnUse">
<stop offset="0.4032" stop-color="#FD05E4"/>
<stop offset="0.423" stop-color="#FA05E1"/>
<stop offset="0.5505" stop-color="#EC03B9"/>
<stop offset="0.6846" stop-color="#E201B0"/>
<stop offset="0.8286" stop-color="#DC00AC"/>
<stop offset="1" stop-color="#DA00B7"/>
</linearGradient>
<linearGradient id="paint11_linear" x1="108.881" y1="269.115" x2="212.225" y2="414.039" gradientUnits="userSpaceOnUse">
<stop offset="0.4032" stop-color="#FC04B7"/>
<stop offset="0.5099" stop-color="#FC04C5"/>
<stop offset="0.6558" stop-color="#FD05C6"/>
<stop offset="0.813" stop-color="#FD05C6"/>
<stop offset="1" stop-color="#FD05C6"/>
</linearGradient>
<linearGradient id="paint12_linear" x1="263.227" y1="363.706" x2="390.462" y2="358.568" gradientUnits="userSpaceOnUse">
<stop stop-color="#3A9BD5"/>
<stop offset="0.1172" stop-color="#3490CE"/>
<stop offset="0.367" stop-color="#2C80C3"/>
<stop offset="0.6442" stop-color="#2776BC"/>
<stop offset="1" stop-color="#2573BA"/>
</linearGradient>
<linearGradient id="paint13_linear" x1="229.242" y1="262.305" x2="333.379" y2="406.356" gradientUnits="userSpaceOnUse">
<stop stop-color="#59BDEF"/>
<stop offset="1" stop-color="#7BDAFF"/>
</linearGradient>
<linearGradient id="paint14_linear" x1="207.528" y1="400.09" x2="334.763" y2="394.952" gradientUnits="userSpaceOnUse">
<stop stop-color="#3A9BD5"/>
<stop offset="0.1172" stop-color="#3490CE"/>
<stop offset="0.367" stop-color="#2C80C3"/>
<stop offset="0.6442" stop-color="#2776BC"/>
<stop offset="1" stop-color="#2573BA"/>
</linearGradient>
<linearGradient id="paint15_linear" x1="173.542" y1="298.69" x2="277.679" y2="442.741" gradientUnits="userSpaceOnUse">
<stop stop-color="#59BDEF"/>
<stop offset="1" stop-color="#7BDAFF"/>
</linearGradient>
<linearGradient id="paint16_linear" x1="346.708" y1="3.02051" x2="346.708" y2="60.3917" gradientUnits="userSpaceOnUse">
<stop stop-color="white"/>
<stop offset="1" stop-color="white" stop-opacity="0"/>
</linearGradient>
<linearGradient id="paint17_linear" x1="351.353" y1="5.65576" x2="351.353" y2="63.0269" gradientUnits="userSpaceOnUse">
<stop stop-color="white"/>
<stop offset="1" stop-color="white" stop-opacity="0"/>
</linearGradient>
<linearGradient id="paint18_linear" x1="422.424" y1="0.390625" x2="422.424" y2="72.7876" gradientUnits="userSpaceOnUse">
<stop stop-color="white" stop-opacity="0.26"/>
<stop offset="1" stop-color="white" stop-opacity="0"/>
</linearGradient>
<linearGradient id="paint19_linear" x1="397.415" y1="35.8916" x2="397.415" y2="271.374" gradientUnits="userSpaceOnUse">
<stop stop-color="white" stop-opacity="0.26"/>
<stop offset="1" stop-color="white" stop-opacity="0"/>
</linearGradient>
<linearGradient id="paint20_linear" x1="249.702" y1="9.05713" x2="249.702" y2="112.939" gradientUnits="userSpaceOnUse">
<stop stop-color="white"/>
<stop offset="1" stop-color="white" stop-opacity="0"/>
</linearGradient>
<linearGradient id="paint21_linear" x1="253.805" y1="11.7363" x2="253.805" y2="122.611" gradientUnits="userSpaceOnUse">
<stop stop-color="white"/>
<stop offset="1" stop-color="white" stop-opacity="0"/>
</linearGradient>
<linearGradient id="paint22_linear" x1="203.871" y1="99.7621" x2="203.871" y2="211.13" gradientUnits="userSpaceOnUse">
<stop stop-color="white"/>
<stop offset="1" stop-color="white" stop-opacity="0"/>
</linearGradient>
<linearGradient id="paint23_linear" x1="208.516" y1="72.8843" x2="208.516" y2="213.92" gradientUnits="userSpaceOnUse">
<stop stop-color="white"/>
<stop offset="1" stop-color="white" stop-opacity="0"/>
</linearGradient>
<linearGradient id="paint24_linear" x1="199.148" y1="188.746" x2="199.148" y2="249.644" gradientUnits="userSpaceOnUse">
<stop stop-color="white"/>
<stop offset="1" stop-color="white" stop-opacity="0"/>
</linearGradient>
<linearGradient id="paint25_linear" x1="203.329" y1="167.11" x2="203.329" y2="252.077" gradientUnits="userSpaceOnUse">
<stop stop-color="white"/>
<stop offset="1" stop-color="white" stop-opacity="0"/>
</linearGradient>
<linearGradient id="paint26_linear" x1="217.262" y1="175.171" x2="217.262" y2="260.139" gradientUnits="userSpaceOnUse">
<stop stop-color="white"/>
<stop offset="1" stop-color="white" stop-opacity="0"/>
</linearGradient>
<linearGradient id="paint27_linear" x1="221.908" y1="177.807" x2="221.908" y2="262.774" gradientUnits="userSpaceOnUse">
<stop stop-color="white"/>
<stop offset="1" stop-color="white" stop-opacity="0"/>
</linearGradient>
<linearGradient id="paint28_linear" x1="226.477" y1="112.939" x2="226.477" y2="224.307" gradientUnits="userSpaceOnUse">
<stop stop-color="white"/>
<stop offset="1" stop-color="white" stop-opacity="0"/>
</linearGradient>
<linearGradient id="paint29_linear" x1="231.122" y1="85.9067" x2="231.122" y2="227.098" gradientUnits="userSpaceOnUse">
<stop stop-color="white"/>
<stop offset="1" stop-color="white" stop-opacity="0"/>
</linearGradient>
<linearGradient id="paint30_linear" x1="441.081" y1="18.9043" x2="441.081" y2="236.665" gradientUnits="userSpaceOnUse">
<stop stop-color="white"/>
<stop offset="1" stop-color="white" stop-opacity="0"/>
</linearGradient>
<linearGradient id="paint31_linear" x1="231.509" y1="87.0498" x2="231.509" y2="146.02" gradientUnits="userSpaceOnUse">
<stop stop-color="white"/>
<stop offset="1" stop-color="white" stop-opacity="0"/>
</linearGradient>
<linearGradient id="paint32_linear" x1="281.521" y1="27.5928" x2="281.521" y2="131.542" gradientUnits="userSpaceOnUse">
<stop stop-color="white"/>
<stop offset="1" stop-color="white" stop-opacity="0"/>
</linearGradient>
<linearGradient id="paint33_linear" x1="285.702" y1="30.228" x2="285.702" y2="141.214" gradientUnits="userSpaceOnUse">
<stop stop-color="white"/>
<stop offset="1" stop-color="white" stop-opacity="0"/>
</linearGradient>
<linearGradient id="paint34_linear" x1="333.101" y1="61.9361" x2="333.101" y2="84.267" gradientUnits="userSpaceOnUse">
<stop stop-color="white"/>
<stop offset="1" stop-color="white" stop-opacity="0"/>
</linearGradient>
<linearGradient id="paint35_linear" x1="392.54" y1="29.5298" x2="392.54" y2="86.901" gradientUnits="userSpaceOnUse">
<stop stop-color="white"/>
<stop offset="1" stop-color="white" stop-opacity="0"/>
</linearGradient>
</defs>
</svg>
