<svg width="482" height="388" viewBox="0 0 482 388" fill="none" xmlns="http://www.w3.org/2000/svg">
<path d="M201 252.867L344.543 170" stroke="#C4C4C4" stroke-width="2" stroke-linecap="round" stroke-linejoin="round" stroke-dasharray="8 8"/>
<path d="M262.543 270.867L119 188" stroke="#C4C4C4" stroke-width="2" stroke-linecap="round" stroke-linejoin="round" stroke-dasharray="8 8"/>
<circle r="19.2911" transform="matrix(0.866044 -0.499967 0.866044 0.499967 350.414 166.29)" fill="#F806B4"/>
<circle r="21.2911" transform="matrix(0.866044 -0.499967 0.866044 0.499967 350.414 166.29)" stroke="#F806B4" stroke-opacity="0.2" stroke-width="4"/>
<path fill-rule="evenodd" clip-rule="evenodd" d="M343.738 160.231L350.978 159.105C350.97 158.948 351.003 158.791 351.073 158.639C351.48 157.773 353.02 157.259 354.523 157.487C356.021 157.72 356.908 158.607 356.506 159.476C356.436 159.626 356.328 159.77 356.186 159.904L361.477 162.958C361.706 162.878 361.953 162.816 362.212 162.776C363.722 162.541 365.259 163.053 365.656 163.921C366.058 164.785 365.161 165.678 363.662 165.912C363.371 165.958 363.07 165.976 362.77 165.967L360.832 170.121C361.1 170.199 361.346 170.301 361.558 170.424C362.65 171.054 362.653 172.084 361.552 172.72C360.45 173.356 358.673 173.357 357.575 172.723C357.38 172.611 357.219 172.486 357.094 172.353L349.856 173.478C349.862 173.633 349.829 173.788 349.76 173.938C349.347 174.807 347.807 175.321 346.31 175.089C344.812 174.857 343.925 173.97 344.327 173.101C344.397 172.952 344.503 172.809 344.642 172.677L339.351 169.622C339.121 169.704 338.871 169.766 338.61 169.807C337.111 170.042 335.568 169.527 335.166 168.662C334.764 167.798 335.661 166.905 337.16 166.671C337.422 166.63 337.693 166.611 337.964 166.615L339.915 162.435C339.678 162.36 339.46 162.266 339.269 162.156C338.172 161.522 338.174 160.496 339.276 159.86C340.377 159.224 342.155 159.222 343.253 159.856C343.45 159.97 343.612 160.097 343.738 160.231ZM344.074 160.978L351.331 159.849C351.513 160.039 351.76 160.206 352.056 160.339C352.352 160.473 352.693 160.571 353.056 160.627C353.823 160.745 354.602 160.668 355.234 160.448L360.532 163.506C360.512 163.525 360.494 163.544 360.475 163.563L344.073 161.04C344.074 161.019 344.074 160.999 344.074 160.978L344.074 160.978ZM341.322 162.63L345.692 172.098C345.658 172.109 345.625 172.12 345.592 172.132L340.294 169.073C340.675 168.708 340.81 168.258 340.604 167.815C340.507 167.605 340.337 167.408 340.105 167.237C339.873 167.066 339.583 166.923 339.254 166.818L341.208 162.63C341.246 162.63 341.284 162.63 341.322 162.63L341.322 162.63ZM343.724 161.786L360.122 164.308C360.116 164.463 360.148 164.618 360.218 164.768C360.287 164.917 360.392 165.059 360.531 165.191L348.51 172.131C348.282 172.051 348.035 171.99 347.777 171.95C347.518 171.91 347.251 171.892 346.984 171.896L342.614 162.427C342.846 162.353 343.059 162.261 343.246 162.152C343.439 162.041 343.599 161.917 343.724 161.786ZM359.702 169.951L361.644 165.789C361.588 165.772 361.532 165.754 361.477 165.735L349.452 172.677C349.472 172.696 349.49 172.715 349.508 172.733L356.753 171.607C356.747 171.388 356.817 171.171 356.959 170.969C357.101 170.766 357.313 170.582 357.581 170.428C357.858 170.267 358.19 170.142 358.555 170.06C358.92 169.978 359.311 169.941 359.702 169.951Z" fill="#FCFCFC"/>
<path d="M398.543 369.867L255 287" stroke="#C4C4C4" stroke-width="2" stroke-linecap="round" stroke-linejoin="round" stroke-dasharray="8 8"/>
<circle r="19.2911" transform="matrix(0.866044 -0.499967 0.866044 0.499967 102.414 176.29)" fill="#F806B4"/>
<circle r="21.2911" transform="matrix(0.866044 -0.499967 0.866044 0.499967 102.414 176.29)" stroke="#F806B4" stroke-opacity="0.2" stroke-width="4"/>
<path fill-rule="evenodd" clip-rule="evenodd" d="M95.7378 170.231L102.978 169.105C102.97 168.948 103.003 168.791 103.073 168.639C103.48 167.773 105.02 167.259 106.523 167.487C108.021 167.72 108.908 168.607 108.506 169.476C108.436 169.626 108.328 169.77 108.186 169.904L113.477 172.958C113.706 172.878 113.953 172.816 114.212 172.776C115.722 172.541 117.259 173.053 117.656 173.921C118.058 174.785 117.161 175.678 115.662 175.912C115.371 175.958 115.07 175.976 114.77 175.967L112.832 180.121C113.1 180.199 113.346 180.301 113.558 180.424C114.65 181.054 114.653 182.084 113.552 182.72C112.45 183.356 110.673 183.357 109.575 182.723C109.38 182.611 109.219 182.486 109.094 182.353L101.856 183.478C101.862 183.633 101.829 183.788 101.76 183.938C101.347 184.807 99.8075 185.321 98.3097 185.089C96.8119 184.857 95.9255 183.97 96.3267 183.101C96.3966 182.952 96.5029 182.809 96.6424 182.677L91.3512 179.622C91.1206 179.704 90.8709 179.766 90.6098 179.807C89.1107 180.042 87.5681 179.527 87.166 178.662C86.7639 177.798 87.6608 176.905 89.16 176.671C89.4222 176.63 89.693 176.611 89.9641 176.615L91.9153 172.435C91.6778 172.36 91.4602 172.266 91.2693 172.156C90.1715 171.522 90.1742 170.496 91.2757 169.86C92.3771 169.224 94.1547 169.222 95.2526 169.856C95.4499 169.97 95.6116 170.097 95.7378 170.231ZM96.0739 170.978L103.331 169.849C103.513 170.039 103.76 170.206 104.056 170.339C104.352 170.473 104.693 170.571 105.056 170.627C105.823 170.745 106.602 170.668 107.234 170.448L112.532 173.506C112.512 173.525 112.494 173.544 112.475 173.563L96.0734 171.04C96.0743 171.019 96.0745 170.999 96.074 170.978L96.0739 170.978ZM93.3216 172.63L97.6916 182.098C97.6581 182.109 97.625 182.12 97.5923 182.132L92.2938 179.073C92.6752 178.708 92.8096 178.258 92.6038 177.815C92.5066 177.605 92.337 177.408 92.105 177.237C91.873 177.066 91.5835 176.923 91.2537 176.818L93.2084 172.63C93.2461 172.63 93.2839 172.63 93.3216 172.63L93.3216 172.63ZM95.7245 171.786L112.122 174.308C112.116 174.463 112.148 174.618 112.218 174.768C112.287 174.917 112.392 175.059 112.531 175.191L100.51 182.131C100.282 182.051 100.035 181.99 99.777 181.95C99.5184 181.91 99.2513 181.892 98.9836 181.896L94.6136 172.427C94.8457 172.353 95.0587 172.261 95.2462 172.152C95.4394 172.041 95.5988 171.917 95.7245 171.786ZM111.702 179.951L113.644 175.789C113.588 175.772 113.532 175.754 113.477 175.735L101.452 182.677C101.472 182.696 101.49 182.715 101.508 182.733L108.753 181.607C108.747 181.388 108.817 181.171 108.959 180.969C109.101 180.766 109.313 180.582 109.581 180.428C109.858 180.267 110.19 180.142 110.555 180.06C110.92 179.978 111.311 179.941 111.702 179.951Z" fill="#FCFCFC"/>
<path d="M204.553 262.808C204.553 263.572 203.904 264.219 203.185 264.219C202.465 264.219 201.816 263.572 201.816 262.808C201.816 262.045 202.465 261.398 203.185 261.398C203.904 261.398 204.553 262.045 204.553 262.808Z" fill="#FCBB6E" stroke="#F4B740"/>
<g filter="url(#filter0_b)">
<path d="M308.822 273.242V259.869H275.047L235.092 236.209C229.774 233.123 220.432 233.417 214.252 237.091L175.734 259.869H141.959V273.977C141.815 276.181 142.965 278.239 145.552 279.708L215.689 321.151C221.007 324.237 230.349 323.943 236.529 320.269L303.792 280.59C307.385 278.533 309.11 275.741 308.822 273.242Z" fill="#E7E7E7"/>
</g>
<g filter="url(#filter1_d)">
<path d="M215.688 307.043L145.551 265.6C140.233 262.514 140.952 256.93 146.988 253.256L214.251 213.577C220.431 209.903 229.773 209.609 235.091 212.696L305.372 254.138C310.689 257.224 309.971 262.808 303.934 266.482L236.672 306.161C230.348 309.835 221.15 310.129 215.688 307.043Z" fill="#FC05B7"/>
</g>
<path d="M217.959 297.502L217.956 297.501L161.329 263.995L161.325 263.992C159.293 262.815 158.511 261.259 158.697 259.727C158.887 258.157 160.111 256.434 162.48 255.008C162.481 255.008 162.482 255.008 162.482 255.007L216.66 222.974C216.661 222.973 216.661 222.973 216.662 222.973C219.095 221.551 222.138 220.761 225.107 220.635C228.079 220.509 230.922 221.052 232.971 222.239C232.972 222.239 232.973 222.239 232.973 222.24L289.597 255.597L289.6 255.599C291.633 256.777 292.414 258.332 292.229 259.864C292.039 261.435 290.815 263.157 288.445 264.583C288.444 264.584 288.444 264.584 288.443 264.584L234.263 296.619L234.263 296.619L234.256 296.623C231.825 298.115 228.748 298.942 225.762 299.085C222.77 299.229 219.931 298.685 217.959 297.502Z" fill="#F4B740" stroke="#F4B740"/>
<path d="M161.97 258.41L161.968 258.411C160.565 259.248 159.497 260.199 158.799 261.273C158.503 260.403 158.563 259.482 158.964 258.563C159.502 257.328 160.669 256.076 162.478 255.009L162.479 255.009L216.66 222.974C216.66 222.973 216.661 222.973 216.661 222.973C219.095 221.551 222.138 220.761 225.106 220.635C228.079 220.509 230.922 221.052 232.971 222.239C232.972 222.239 232.972 222.239 232.973 222.24L289.597 255.597L289.605 255.602C290.964 256.366 291.761 257.309 292.089 258.284C292.334 259.011 292.331 259.794 292.065 260.592C291.545 259.959 290.844 259.43 290.103 258.997L233.477 225.638L233.474 225.636C231.212 224.325 228.163 223.766 225.064 223.898C221.96 224.029 218.752 224.855 216.156 226.372L216.153 226.373L161.97 258.41Z" fill="#F4B740" stroke="#F4B740"/>
<path d="M291.575 268.54C292.294 268.981 292.294 269.715 291.575 270.156C290.857 270.597 289.563 270.597 288.845 270.156C288.126 269.715 288.126 268.981 288.845 268.54C289.563 268.099 290.857 268.099 291.575 268.54Z" fill="#FFF3F8" fill-opacity="0.7"/>
<path d="M295.887 266.041C296.606 266.482 296.606 267.217 295.887 267.658C295.168 268.099 293.875 268.099 293.156 267.658C292.438 267.217 292.438 266.482 293.156 266.041C293.875 265.6 295.168 265.6 295.887 266.041Z" fill="#FFF3F8" fill-opacity="0.7"/>
<path d="M300.199 263.396C300.918 263.837 300.918 264.572 300.199 265.013C299.481 265.454 298.187 265.454 297.469 265.013C296.75 264.572 296.75 263.837 297.469 263.396C298.187 262.955 299.481 262.955 300.199 263.396Z" fill="#FFF3F8" fill-opacity="0.7"/>
<path opacity="0.5" d="M219.539 289.272L219.537 289.271L175.132 263.116C173.591 262.155 172.991 260.962 173.124 259.817C173.26 258.64 174.189 257.321 176.131 256.186L176.132 256.186L218.674 231.203L218.674 231.203L218.68 231.199C220.534 230.076 222.89 229.468 225.213 229.379C227.536 229.29 229.772 229.721 231.395 230.618L275.651 256.77C277.192 257.731 277.792 258.924 277.659 260.069C277.523 261.246 276.594 262.565 274.652 263.699L274.649 263.701L232.259 288.826C232.257 288.827 232.256 288.828 232.255 288.828C230.395 289.884 228.034 290.491 225.713 290.58C223.387 290.669 221.156 290.237 219.539 289.272Z" fill="#F5F5F5" stroke="#E7E7E7"/>
<g filter="url(#filter2_b)">
<path d="M308.822 249.66V236.287H275.047L235.092 212.627C229.774 209.54 220.432 209.834 214.252 213.508L175.734 236.287H141.959V250.395C141.815 252.599 142.965 254.657 145.552 256.126L215.833 297.568C221.151 300.654 230.493 300.36 236.673 296.687L303.936 257.008C307.385 254.95 309.11 252.158 308.822 249.66Z" fill="#E7E7E7"/>
<path d="M308.322 249.66V249.689L308.325 249.717C308.581 251.935 307.048 254.569 303.68 256.578C303.68 256.578 303.68 256.578 303.679 256.578L236.419 296.256L236.417 296.257C233.412 298.044 229.616 299.018 225.91 299.163C222.201 299.307 218.638 298.618 216.085 297.137C216.085 297.136 216.085 297.136 216.084 297.136L145.806 255.695L145.806 255.695L145.799 255.691C143.341 254.295 142.329 252.401 142.458 250.427L142.459 250.411V250.395V236.787H175.734H175.871L175.989 236.717L214.507 213.939L214.508 213.938C217.513 212.151 221.309 211.176 225.015 211.032C228.724 210.887 232.286 211.577 234.839 213.058C234.84 213.058 234.84 213.059 234.841 213.059L274.792 236.717L274.91 236.787H275.047H308.322V249.66Z" stroke="#E7E7E7"/>
</g>
<path d="M145.806 240.588L145.803 240.586C143.273 239.117 142.269 237.123 142.509 235.126C142.754 233.093 144.305 230.894 147.246 229.103C147.247 229.102 147.248 229.101 147.249 229.101L214.506 189.426L214.507 189.425C217.513 187.638 221.309 186.663 225.015 186.519C228.724 186.374 232.287 187.064 234.839 188.545C234.84 188.545 234.84 188.545 234.841 188.546L305.119 229.986L305.122 229.988C307.652 231.456 308.655 233.451 308.415 235.448C308.171 237.481 306.62 239.68 303.679 241.471C303.678 241.472 303.676 241.472 303.675 241.473L236.422 281.146C236.421 281.146 236.421 281.147 236.421 281.147C233.34 282.936 229.542 283.911 225.838 284.055C222.132 284.199 218.567 283.511 215.939 282.028C215.938 282.027 215.937 282.026 215.935 282.025L145.806 240.588Z" fill="#F5F5F5" stroke="#E7E7E7"/>
<path d="M215.689 282.46L145.552 241.018C140.234 237.932 140.953 232.348 146.989 228.674L214.252 188.995C220.432 185.321 229.774 185.027 235.092 188.113L305.373 229.555C310.69 232.642 309.972 238.226 303.935 241.9L236.673 281.579C230.349 285.253 221.151 285.547 215.689 282.46Z" fill="#F5F5F5"/>
<path opacity="0.2" d="M230.925 236.178C229.487 237.059 229.487 238.382 230.925 239.264C232.362 240.145 234.805 240.145 236.242 239.264C237.68 238.382 237.68 237.059 236.242 236.178C234.805 235.296 232.362 235.296 230.925 236.178Z" fill="#C4C4C4"/>
<path opacity="0.6" d="M222.732 231.328C221.295 232.21 221.295 233.532 222.732 234.414C224.169 235.296 226.613 235.296 228.05 234.414C229.487 233.532 229.487 232.21 228.05 231.328C226.613 230.446 224.169 230.446 222.732 231.328Z" fill="#C4C4C4"/>
<path d="M214.54 226.478C213.103 227.36 213.103 228.683 214.54 229.564C215.977 230.446 218.42 230.446 219.858 229.564C221.295 228.683 221.295 227.36 219.858 226.478C218.277 225.597 215.977 225.597 214.54 226.478Z" fill="#C4C4C4"/>
<path d="M166.048 228.74C166.14 228.56 166.134 228.38 166.03 228.2C165.938 228.02 165.753 227.85 165.476 227.69C164.997 227.413 164.454 227.283 163.848 227.3C163.247 227.313 162.684 227.471 162.159 227.775C161.599 228.098 161.31 228.438 161.293 228.795C161.287 229.151 161.55 229.483 162.081 229.79C162.445 230 162.843 230.123 163.276 230.16C163.715 230.2 164.165 230.153 164.627 230.02L162.748 228.935L163.839 228.305L167.061 230.165L165.684 230.96C165.205 231.11 164.674 231.2 164.09 231.23C163.513 231.263 162.924 231.22 162.324 231.1C161.723 230.98 161.169 230.773 160.661 230.48C160.06 230.133 159.653 229.748 159.44 229.325C159.238 228.901 159.238 228.478 159.44 228.055C159.648 227.635 160.052 227.251 160.652 226.905C161.253 226.558 161.917 226.325 162.644 226.205C163.383 226.085 164.116 226.085 164.844 226.205C165.577 226.322 166.244 226.553 166.844 226.9C167.572 227.32 168.008 227.775 168.152 228.265C168.302 228.758 168.146 229.231 167.684 229.685L166.048 228.74ZM167.552 234.408L168.583 232.353L168.228 232.148L165.933 233.473L164.452 232.618L170.531 229.108L173.017 230.543C173.496 230.82 173.819 231.103 173.987 231.393C174.16 231.686 174.183 231.966 174.056 232.233C173.935 232.496 173.695 232.731 173.337 232.938C172.933 233.171 172.457 233.313 171.908 233.363C171.366 233.416 170.806 233.353 170.228 233.173L169.224 235.373L167.552 234.408ZM169.276 231.543L170.194 232.073C170.465 232.23 170.733 232.308 170.999 232.308C171.27 232.311 171.527 232.243 171.77 232.103C172.001 231.97 172.113 231.825 172.108 231.668C172.108 231.515 171.972 231.36 171.7 231.203L170.782 230.673L169.276 231.543ZM174.96 237.444L172.691 236.135L171.253 236.544L169.703 235.65L177.982 233.41L179.697 234.4L175.817 239.179L174.25 238.274L174.96 237.444ZM175.722 236.564L177.194 234.845L174.224 235.7L175.722 236.564ZM185.242 239.861C184.89 240.064 184.486 240.204 184.03 240.281C183.58 240.354 183.097 240.346 182.584 240.256C182.07 240.166 181.565 239.977 181.068 239.691L180.15 239.161L177.968 240.421L176.487 239.566L182.566 236.056L184.965 237.441C185.45 237.721 185.776 238.006 185.944 238.296C186.111 238.586 186.131 238.864 186.004 239.131C185.877 239.397 185.623 239.641 185.242 239.861ZM182.133 238.946C182.416 239.109 182.693 239.193 182.965 239.196C183.236 239.199 183.493 239.131 183.735 238.991C183.978 238.851 184.096 238.703 184.091 238.546C184.085 238.389 183.94 238.229 183.657 238.066L182.852 237.601L181.328 238.481L182.133 238.946ZM193.236 242.216L187.157 245.726L185.676 244.871L188.178 243.426L185.875 242.096L183.372 243.541L181.891 242.686L187.971 239.176L189.452 240.031L187.07 241.406L189.374 242.736L191.755 241.361L193.236 242.216ZM191.517 249.443L191.785 248.388C191.508 248.281 191.26 248.164 191.04 248.038C190.469 247.708 190.076 247.328 189.862 246.898C189.655 246.471 189.646 246.039 189.836 245.603C190.039 245.166 190.437 244.776 191.032 244.433C191.626 244.09 192.299 243.861 193.049 243.748C193.806 243.638 194.554 243.643 195.293 243.763C196.037 243.886 196.696 244.113 197.267 244.443C197.839 244.773 198.228 245.151 198.436 245.578C198.65 246.008 198.656 246.438 198.454 246.868C198.257 247.301 197.862 247.689 197.267 248.033C196.747 248.333 196.164 248.546 195.518 248.673C194.883 248.799 194.236 248.836 193.578 248.783L193.309 250.477L191.517 249.443ZM192.547 245.308C192.01 245.618 191.724 245.949 191.69 246.303C191.667 246.656 191.901 246.974 192.391 247.258C192.876 247.538 193.425 247.668 194.037 247.648C194.655 247.631 195.229 247.469 195.76 247.163C196.297 246.853 196.577 246.521 196.6 246.168C196.635 245.814 196.41 245.498 195.925 245.218C195.434 244.934 194.883 244.799 194.271 244.813C193.664 244.829 193.09 244.994 192.547 245.308ZM197.675 250.478L199.615 251.598L198.472 252.258L195.051 250.283L201.13 246.773L202.611 247.628L197.675 250.478ZM150.467 235.614C150.023 235.358 149.697 235.086 149.489 234.799C149.281 234.513 149.212 234.226 149.281 233.939C149.356 233.656 149.587 233.396 149.974 233.159L151.55 234.069C151.348 234.213 151.253 234.358 151.264 234.504C151.282 234.648 151.397 234.781 151.611 234.904C151.83 235.031 152.052 235.103 152.278 235.119C152.508 235.133 152.713 235.088 152.892 234.984C153.043 234.898 153.115 234.796 153.109 234.679C153.109 234.566 153.066 234.448 152.979 234.324C152.898 234.204 152.763 234.043 152.572 233.839C152.301 233.543 152.101 233.288 151.974 233.074C151.847 232.861 151.813 232.634 151.87 232.394C151.928 232.154 152.148 231.924 152.529 231.704C153.094 231.378 153.741 231.241 154.469 231.295C155.202 231.345 155.898 231.56 156.556 231.939C157.226 232.326 157.604 232.731 157.69 233.154C157.783 233.574 157.558 233.958 157.015 234.304L155.413 233.379C155.597 233.259 155.678 233.129 155.655 232.989C155.638 232.846 155.525 232.714 155.317 232.594C155.138 232.491 154.945 232.436 154.737 232.429C154.535 232.419 154.344 232.466 154.166 232.569C153.969 232.683 153.909 232.824 153.984 232.994C154.059 233.164 154.229 233.399 154.495 233.699C154.754 234.003 154.945 234.259 155.066 234.469C155.193 234.683 155.231 234.908 155.179 235.144C155.127 235.381 154.919 235.604 154.555 235.814C154.209 236.014 153.805 236.144 153.343 236.204C152.887 236.268 152.407 236.251 151.905 236.154C151.403 236.058 150.924 235.878 150.467 235.614ZM160.031 235.415L158.801 236.125L160.784 237.27L159.641 237.93L157.658 236.785L156.324 237.555L158.567 238.85L157.381 239.535L153.657 237.385L159.736 233.876L163.46 236.025L162.274 236.71L160.031 235.415ZM161.442 241.88L162.473 239.825L162.118 239.62L159.823 240.945L158.342 240.09L164.422 236.58L166.907 238.015C167.386 238.292 167.71 238.575 167.877 238.865C168.05 239.159 168.073 239.439 167.946 239.705C167.825 239.969 167.586 240.204 167.228 240.41C166.823 240.643 166.347 240.785 165.799 240.835C165.256 240.888 164.696 240.825 164.119 240.645L163.114 242.845L161.442 241.88ZM163.166 239.015L164.084 239.545C164.355 239.702 164.624 239.78 164.889 239.78C165.161 239.784 165.418 239.715 165.66 239.575C165.891 239.442 166.004 239.297 165.998 239.14C165.998 238.987 165.862 238.832 165.591 238.675L164.673 238.145L163.166 239.015ZM175.778 243.137L167.542 245.402L165.689 244.332L169.612 239.577L171.188 240.487L168.105 244.007L174.211 242.232L175.778 243.137ZM176.692 245.034L175.462 245.744L177.445 246.889L176.302 247.549L174.319 246.404L172.985 247.174L175.228 248.469L174.042 249.154L170.318 247.004L176.397 243.494L180.121 245.644L178.935 246.329L176.692 245.034ZM178.104 251.499L179.134 249.444L178.779 249.239L176.484 250.564L175.003 249.709L181.083 246.199L183.568 247.634C184.048 247.91 184.371 248.194 184.538 248.484C184.712 248.777 184.735 249.057 184.608 249.324C184.486 249.587 184.247 249.822 183.889 250.029C183.485 250.262 183.008 250.404 182.46 250.454C181.917 250.507 181.357 250.444 180.78 250.264L179.775 252.464L178.104 251.499ZM179.827 248.634L180.745 249.164C181.016 249.32 181.285 249.399 181.551 249.399C181.822 249.402 182.079 249.334 182.321 249.194C182.552 249.06 182.665 248.915 182.659 248.759C182.659 248.605 182.523 248.45 182.252 248.294L181.334 247.764L179.827 248.634Z" fill="#C4C4C4"/>
<g filter="url(#filter3_d)">
<path fill-rule="evenodd" clip-rule="evenodd" d="M24 20C18.4772 20 14 24.4772 14 30V146C14 151.523 18.4771 156 24 156H83.7058C85.3135 156 86.799 156.858 87.6029 158.25C89.3349 161.25 93.6651 161.25 95.3971 158.25C96.201 156.858 97.6865 156 99.2942 156H149C154.523 156 159 151.523 159 146V30C159 24.4772 154.523 20 149 20H24Z" fill="#FCFCFC"/>
</g>
<rect x="24" y="38" width="122" height="11" rx="5.5" fill="#F5F5F5"/>
<rect x="24" y="60" width="60" height="11" rx="5.5" fill="#F806B4"/>
<rect x="102" y="105" width="47" height="11" rx="5.5" fill="#F806B4"/>
<rect x="24" y="128" width="125" height="11" rx="5.5" fill="#F806B4"/>
<rect x="24" y="83" width="95" height="11" rx="5.5" fill="#F5F5F5"/>
<rect x="24" y="105" width="74" height="11" rx="5.5" fill="#F5F5F5"/>
<g filter="url(#filter4_d)">
<path fill-rule="evenodd" clip-rule="evenodd" d="M333 202C327.477 202 323 206.477 323 212V328C323 333.523 327.477 338 333 338H392.706C394.313 338 395.799 338.858 396.603 340.25C398.335 343.25 402.665 343.25 404.397 340.25C405.201 338.858 406.687 338 408.294 338H458C463.523 338 468 333.523 468 328V212C468 206.477 463.523 202 458 202H333Z" fill="#FCFCFC"/>
</g>
<rect x="333" y="220" width="122" height="11" rx="5.5" fill="#F5F5F5"/>
<rect x="333" y="242" width="60" height="11" rx="5.5" fill="#F806B4"/>
<rect x="411" y="287" width="47" height="11" rx="5.5" fill="#F806B4"/>
<rect x="333" y="310" width="125" height="11" rx="5.5" fill="#F806B4"/>
<rect x="333" y="265" width="95" height="11" rx="5.5" fill="#F5F5F5"/>
<rect x="333" y="287" width="74" height="11" rx="5.5" fill="#F5F5F5"/>
<g filter="url(#filter5_d)">
<path fill-rule="evenodd" clip-rule="evenodd" d="M283 10C277.477 10 273 14.4772 273 20V136C273 141.523 277.477 146 283 146H342.706C344.313 146 345.799 146.858 346.603 148.25C348.335 151.25 352.665 151.25 354.397 148.25C355.201 146.858 356.687 146 358.294 146H408C413.523 146 418 141.523 418 136V20C418 14.4772 413.523 10 408 10H283Z" fill="#FCFCFC"/>
</g>
<rect x="283" y="28" width="122" height="11" rx="5.5" fill="#F5F5F5"/>
<rect x="283" y="50" width="60" height="11" rx="5.5" fill="#F806B4"/>
<rect x="361" y="95" width="47" height="11" rx="5.5" fill="#F5F5F5"/>
<rect x="283" y="118" width="39" height="11" rx="5.5" fill="#F806B4"/>
<rect x="327" y="118" width="39" height="11" rx="5.5" fill="#F806B4"/>
<rect x="371" y="118" width="39" height="11" rx="5.5" fill="#F806B4"/>
<rect x="283" y="73" width="95" height="11" rx="5.5" fill="#1CC8EE"/>
<rect x="283" y="95" width="74" height="11" rx="5.5" fill="#F5F5F5"/>
<circle r="19.2911" transform="matrix(0.866044 -0.499967 0.866044 0.499967 402.414 368.29)" fill="#F806B4"/>
<circle r="21.2911" transform="matrix(0.866044 -0.499967 0.866044 0.499967 402.414 368.29)" stroke="#F806B4" stroke-opacity="0.2" stroke-width="4"/>
<path fill-rule="evenodd" clip-rule="evenodd" d="M395.738 362.231L402.978 361.105C402.97 360.948 403.003 360.791 403.073 360.639C403.48 359.773 405.02 359.259 406.523 359.488C408.021 359.72 408.908 360.607 408.506 361.476C408.436 361.626 408.328 361.77 408.186 361.904L413.477 364.958C413.706 364.878 413.953 364.816 414.212 364.776C415.722 364.541 417.259 365.053 417.656 365.921C418.058 366.785 417.161 367.678 415.662 367.913C415.371 367.958 415.07 367.977 414.77 367.967L412.832 372.121C413.1 372.199 413.346 372.301 413.558 372.424C414.65 373.055 414.653 374.084 413.552 374.72C412.45 375.356 410.673 375.357 409.575 374.724C409.38 374.611 409.219 374.486 409.094 374.353L401.856 375.479C401.862 375.634 401.829 375.788 401.76 375.938C401.347 376.807 399.807 377.321 398.31 377.089C396.812 376.857 395.925 375.97 396.327 375.101C396.397 374.952 396.503 374.809 396.642 374.677L391.351 371.622C391.121 371.704 390.871 371.766 390.61 371.807C389.111 372.042 387.568 371.527 387.166 370.663C386.764 369.798 387.661 368.906 389.16 368.671C389.422 368.63 389.693 368.612 389.964 368.616L391.915 364.435C391.678 364.36 391.46 364.266 391.269 364.156C390.172 363.522 390.174 362.496 391.276 361.86C392.377 361.224 394.155 361.223 395.253 361.856C395.45 361.97 395.612 362.097 395.738 362.231ZM396.074 362.978L403.331 361.849C403.513 362.039 403.76 362.206 404.056 362.34C404.352 362.473 404.693 362.571 405.056 362.627C405.823 362.746 406.602 362.668 407.234 362.448L412.532 365.506C412.512 365.525 412.494 365.544 412.475 365.563L396.073 363.04C396.074 363.019 396.074 362.999 396.074 362.978L396.074 362.978ZM393.322 364.63L397.692 374.098C397.658 374.109 397.625 374.12 397.592 374.132L392.294 371.073C392.675 370.708 392.81 370.258 392.604 369.815C392.507 369.605 392.337 369.409 392.105 369.237C391.873 369.066 391.583 368.923 391.254 368.818L393.208 364.63C393.246 364.63 393.284 364.63 393.322 364.63L393.322 364.63ZM395.724 363.786L412.122 366.308C412.116 366.463 412.148 366.618 412.218 366.768C412.287 366.917 412.392 367.059 412.531 367.191L400.51 374.131C400.282 374.051 400.035 373.99 399.777 373.95C399.518 373.91 399.251 373.892 398.984 373.896L394.614 364.428C394.846 364.353 395.059 364.261 395.246 364.152C395.439 364.041 395.599 363.917 395.724 363.786ZM411.702 371.951L413.644 367.789C413.588 367.772 413.532 367.754 413.477 367.735L401.452 374.677C401.472 374.696 401.49 374.715 401.508 374.734L408.753 373.607C408.747 373.388 408.817 373.171 408.959 372.969C409.101 372.766 409.313 372.582 409.581 372.428C409.858 372.267 410.19 372.142 410.555 372.06C410.92 371.978 411.311 371.941 411.702 371.951Z" fill="#FCFCFC"/>
<defs>
<filter id="filter0_b" x="133.947" y="226.095" width="182.906" height="105.168" filterUnits="userSpaceOnUse" color-interpolation-filters="sRGB">
<feFlood flood-opacity="0" result="BackgroundImageFix"/>
<feGaussianBlur in="BackgroundImage" stdDeviation="4"/>
<feComposite in2="SourceAlpha" operator="in" result="effect1_backgroundBlur"/>
<feBlend mode="normal" in="SourceGraphic" in2="effect1_backgroundBlur" result="shape"/>
</filter>
<filter id="filter1_d" x="127.974" y="196.582" width="194.975" height="126.574" filterUnits="userSpaceOnUse" color-interpolation-filters="sRGB">
<feFlood flood-opacity="0" result="BackgroundImageFix"/>
<feColorMatrix in="SourceAlpha" type="matrix" values="0 0 0 0 0 0 0 0 0 0 0 0 0 0 0 0 0 0 127 0"/>
<feOffset/>
<feGaussianBlur stdDeviation="7"/>
<feColorMatrix type="matrix" values="0 0 0 0 0.988235 0 0 0 0 0.0196078 0 0 0 0 0.717647 0 0 0 0.5 0"/>
<feBlend mode="normal" in2="BackgroundImageFix" result="effect1_dropShadow"/>
<feBlend mode="normal" in="SourceGraphic" in2="effect1_dropShadow" result="shape"/>
</filter>
<filter id="filter2_b" x="133.947" y="202.513" width="182.906" height="105.168" filterUnits="userSpaceOnUse" color-interpolation-filters="sRGB">
<feFlood flood-opacity="0" result="BackgroundImageFix"/>
<feGaussianBlur in="BackgroundImage" stdDeviation="4"/>
<feComposite in2="SourceAlpha" operator="in" result="effect1_backgroundBlur"/>
<feBlend mode="normal" in="SourceGraphic" in2="effect1_backgroundBlur" result="shape"/>
</filter>
<filter id="filter3_d" x="0" y="10" width="173" height="168.5" filterUnits="userSpaceOnUse" color-interpolation-filters="sRGB">
<feFlood flood-opacity="0" result="BackgroundImageFix"/>
<feColorMatrix in="SourceAlpha" type="matrix" values="0 0 0 0 0 0 0 0 0 0 0 0 0 0 0 0 0 0 127 0"/>
<feOffset dy="4"/>
<feGaussianBlur stdDeviation="7"/>
<feColorMatrix type="matrix" values="0 0 0 0 0 0 0 0 0 0 0 0 0 0 0 0 0 0 0.1 0"/>
<feBlend mode="normal" in2="BackgroundImageFix" result="effect1_dropShadow"/>
<feBlend mode="normal" in="SourceGraphic" in2="effect1_dropShadow" result="shape"/>
</filter>
<filter id="filter4_d" x="309" y="192" width="173" height="168.5" filterUnits="userSpaceOnUse" color-interpolation-filters="sRGB">
<feFlood flood-opacity="0" result="BackgroundImageFix"/>
<feColorMatrix in="SourceAlpha" type="matrix" values="0 0 0 0 0 0 0 0 0 0 0 0 0 0 0 0 0 0 127 0"/>
<feOffset dy="4"/>
<feGaussianBlur stdDeviation="7"/>
<feColorMatrix type="matrix" values="0 0 0 0 0 0 0 0 0 0 0 0 0 0 0 0 0 0 0.1 0"/>
<feBlend mode="normal" in2="BackgroundImageFix" result="effect1_dropShadow"/>
<feBlend mode="normal" in="SourceGraphic" in2="effect1_dropShadow" result="shape"/>
</filter>
<filter id="filter5_d" x="259" y="0" width="173" height="168.5" filterUnits="userSpaceOnUse" color-interpolation-filters="sRGB">
<feFlood flood-opacity="0" result="BackgroundImageFix"/>
<feColorMatrix in="SourceAlpha" type="matrix" values="0 0 0 0 0 0 0 0 0 0 0 0 0 0 0 0 0 0 127 0"/>
<feOffset dy="4"/>
<feGaussianBlur stdDeviation="7"/>
<feColorMatrix type="matrix" values="0 0 0 0 0 0 0 0 0 0 0 0 0 0 0 0 0 0 0.1 0"/>
<feBlend mode="normal" in2="BackgroundImageFix" result="effect1_dropShadow"/>
<feBlend mode="normal" in="SourceGraphic" in2="effect1_dropShadow" result="shape"/>
</filter>
</defs>
</svg>
