<svg width="110" height="110" viewBox="0 0 110 110" fill="none" xmlns="http://www.w3.org/2000/svg">
<path d="M36.199 44.1138L43.999 39.6138C40.199 41.8138 37.799 46.5138 37.799 53.2138L29.999 57.7138C29.999 51.0138 32.399 46.3138 36.199 44.1138Z" fill="#70B7D8"/>
<path d="M25.8988 26.2138L36.2988 44.2138C32.4988 46.4138 30.0988 51.1138 30.0988 57.8138L15.2988 49.2138C15.2988 37.8138 19.3988 29.9138 25.8988 26.2138Z" fill="#AFE6FF"/>
<path d="M51.1988 28.7138V45.6138C45.3988 42.2138 40.0988 41.9138 36.1988 44.1138L25.7988 26.1138C32.3988 22.4138 41.3988 23.0138 51.1988 28.7138Z" fill="#69D0FF"/>
<path d="M51.1992 28.7138L58.9992 24.2138V41.1138L51.1992 45.6138V28.7138Z" fill="#2EBEFF"/>
<g filter="url(#filter0_b)">
<path d="M25.8984 26.2138L33.6984 21.7138C40.1984 18.0138 49.1984 18.6138 59.0984 24.3138L51.2984 28.8138C41.3984 23.0138 32.3984 22.4138 25.8984 26.2138Z" fill="#5DC4F3" fill-opacity="0.6"/>
</g>
<g filter="url(#filter1_b)">
<path d="M76.499 55.4138L84.299 50.9138C90.799 62.1138 94.799 74.7138 94.699 86.1138L86.899 90.6138C86.999 79.2138 82.999 66.6138 76.499 55.4138Z" fill="#0185C0" fill-opacity="0.6"/>
</g>
<path d="M76.4992 55.4138C82.9992 66.6138 86.9992 79.2138 86.8992 90.6138L72.2992 82.1138C72.2992 75.4138 69.9992 68.0138 66.1992 61.4138L76.4992 55.4138Z" fill="#0192D3"/>
<path d="M66.0986 61.4138L73.8986 56.9138L84.2986 50.9138L76.4986 55.4138L66.0986 61.4138Z" fill="#52BA52"/>
<g filter="url(#filter2_b)">
<path d="M51.1992 28.7138L58.9992 24.2138C68.8992 29.9138 77.7992 39.7138 84.2992 50.9138L76.4992 55.4138C70.0992 44.2138 61.0992 34.4138 51.1992 28.7138Z" fill="#24AEEC" fill-opacity="0.6"/>
</g>
<path d="M51.1992 28.7138C61.0992 34.4138 69.9992 44.2138 76.4992 55.4138L66.0992 61.3138C62.2992 54.7138 56.9992 48.9138 51.1992 45.6138V28.7138Z" fill="#2EBEFF"/>
<path d="M57.2988 63.8138C57.2988 65.3138 58.3988 67.2138 59.6988 68.0138L56.1988 70.0138C54.8988 69.2138 53.7988 67.3138 53.7988 65.8138C54.8988 65.2138 56.0988 64.5138 57.2988 63.8138C56.0988 64.5138 54.9988 65.2138 53.7988 65.8138C53.7988 65.0138 54.0988 64.5138 54.4988 64.2138L57.9988 62.2138C57.5988 62.5138 57.2988 63.1138 57.2988 63.8138Z" fill="#587380"/>
<path d="M59.6992 68.1138C60.3992 68.5138 60.9992 68.5138 61.3992 68.3138L57.8992 70.3138C57.4992 70.6138 56.7992 70.5138 56.1992 70.1138C57.2992 69.5138 58.6992 68.7138 59.6992 68.1138Z" fill="#587380"/>
<path d="M54.499 64.3138L57.999 62.3138C58.399 62.0138 59.099 62.1138 59.699 62.5138L56.199 64.5138C55.499 64.1138 54.899 64.1138 54.499 64.3138Z" fill="#37474F"/>
<path d="M61.4988 68.2138L57.9988 70.2138C58.3988 69.9138 58.6988 69.4138 58.6988 68.6138C58.6988 67.1138 57.5988 65.2138 56.2988 64.4138L59.7988 62.4138C61.0988 63.2138 62.1988 65.1138 62.1988 66.6138C62.1988 67.4138 61.8988 68.0138 61.4988 68.2138Z" fill="#37474F"/>
<g filter="url(#filter3_b)">
<path d="M53.8988 63.2138C55.1988 62.5138 73.2988 57.3138 74.2988 57.0138C73.5988 57.7138 59.8988 70.6138 58.5988 71.3138C57.8988 71.7138 57.0988 71.5138 56.1988 71.1138C55.2988 70.6138 54.4988 69.7138 53.8988 68.6138C52.5988 66.4138 52.5988 64.0138 53.8988 63.2138ZM56.1988 70.1138C57.4988 70.9138 58.5988 70.3138 58.5988 68.7138C58.5988 67.2138 57.4988 65.3138 56.1988 64.5138C54.8988 63.7138 53.7988 64.3138 53.7988 65.9138C53.7988 67.4138 54.8988 69.3138 56.1988 70.1138Z" fill="#0B0D11" fill-opacity="0.7"/>
</g>
<path d="M56.1988 64.5138C57.4988 65.3138 58.5988 67.2138 58.5988 68.7138C58.5988 70.2138 57.4988 70.9138 56.1988 70.1138C54.8988 69.3138 53.7988 67.4138 53.7988 65.9138C53.7988 64.3138 54.8988 63.7138 56.1988 64.5138Z" fill="#1CC8EE"/>
<defs>
<filter id="filter0_b" x="18.8984" y="12.3862" width="47.2" height="23.4276" filterUnits="userSpaceOnUse" color-interpolation-filters="sRGB">
<feFlood flood-opacity="0" result="BackgroundImageFix"/>
<feGaussianBlur in="BackgroundImage" stdDeviation="3.5"/>
<feComposite in2="SourceAlpha" operator="in" result="effect1_backgroundBlur"/>
<feBlend mode="normal" in="SourceGraphic" in2="effect1_backgroundBlur" result="shape"/>
</filter>
<filter id="filter1_b" x="69.499" y="43.9138" width="32.2018" height="53.7" filterUnits="userSpaceOnUse" color-interpolation-filters="sRGB">
<feFlood flood-opacity="0" result="BackgroundImageFix"/>
<feGaussianBlur in="BackgroundImage" stdDeviation="3.5"/>
<feComposite in2="SourceAlpha" operator="in" result="effect1_backgroundBlur"/>
<feBlend mode="normal" in="SourceGraphic" in2="effect1_backgroundBlur" result="shape"/>
</filter>
<filter id="filter2_b" x="44.1992" y="17.2138" width="47.1" height="45.2" filterUnits="userSpaceOnUse" color-interpolation-filters="sRGB">
<feFlood flood-opacity="0" result="BackgroundImageFix"/>
<feGaussianBlur in="BackgroundImage" stdDeviation="3.5"/>
<feComposite in2="SourceAlpha" operator="in" result="effect1_backgroundBlur"/>
<feBlend mode="normal" in="SourceGraphic" in2="effect1_backgroundBlur" result="shape"/>
</filter>
<filter id="filter3_b" x="48.9238" y="53.0138" width="29.375" height="22.518" filterUnits="userSpaceOnUse" color-interpolation-filters="sRGB">
<feFlood flood-opacity="0" result="BackgroundImageFix"/>
<feGaussianBlur in="BackgroundImage" stdDeviation="2"/>
<feComposite in2="SourceAlpha" operator="in" result="effect1_backgroundBlur"/>
<feBlend mode="normal" in="SourceGraphic" in2="effect1_backgroundBlur" result="shape"/>
</filter>
</defs>
</svg>
