<svg width="110" height="110" viewBox="0 0 110 110" fill="none" xmlns="http://www.w3.org/2000/svg">
<path d="M28.9183 63.4955C28.9183 66.7955 31.2183 70.7955 34.0183 72.3955L25.7183 77.1955C22.9183 75.5955 20.5183 71.5955 20.6183 68.2955C23.3183 66.6955 26.1183 65.0955 28.9183 63.4955C26.1183 65.0955 23.4183 66.6955 20.6183 68.2955C20.6183 66.6955 21.2183 65.4955 22.1183 64.9955L30.4183 60.1955C29.4183 60.6955 28.9183 61.7955 28.9183 63.4955Z" fill="#9B0070"/>
<path fill-rule="evenodd" clip-rule="evenodd" d="M22.1191 64.9955L22.3584 64.8571C22.2758 64.8981 22.196 64.9442 22.1191 64.9955ZM34.0337 60.545C32.5698 59.6956 31.302 59.705 30.4191 60.1955L22.3584 64.8571C23.2427 64.4184 24.4473 64.5723 25.8191 65.3955L25.9055 65.3455C28.6621 66.9751 30.9124 70.9172 30.9193 74.1804C30.5712 74.384 30.2202 74.5897 29.8692 74.7955C28.4192 75.6455 26.9692 76.4955 25.7192 77.1955C27.2192 78.0955 28.5192 78.0955 29.4192 77.5955L37.7192 72.7955C37.5562 72.877 37.3851 72.9426 37.207 72.9918L37.7193 72.6955C38.6193 72.1955 39.2193 71.0955 39.2193 69.3955C39.3193 66.0955 36.9193 62.0955 34.1193 60.4955L34.0337 60.545Z" fill="#9B0070"/>
<path d="M25.8188 61.4955C30.5188 64.1955 34.3188 70.7955 34.3188 76.1955C34.3188 81.5955 30.4187 83.7955 25.7188 81.0955C21.0188 78.3955 17.2188 71.7955 17.2188 66.3955C17.2188 60.8955 21.0188 58.6955 25.8188 61.4955ZM25.7188 77.1955C28.5188 78.7955 30.9187 77.4955 30.9187 74.2955C30.9187 70.9955 28.6188 66.9955 25.8188 65.3955C23.0188 63.7955 20.6188 65.0955 20.6188 68.3955C20.6188 71.5955 22.9187 75.5955 25.7188 77.1955Z" fill="#FC05B7"/>
<path d="M25.8183 65.2955C28.6183 66.8955 31.0183 70.8955 30.9183 74.1955C30.9183 77.4955 28.6183 78.7955 25.7183 77.0955C22.9183 75.4955 20.5183 71.4955 20.6183 68.1955C20.6183 64.9955 22.9183 63.6955 25.8183 65.2955Z" fill="#FC05B7"/>
<g filter="url(#filter0_b)">
<path fill-rule="evenodd" clip-rule="evenodd" d="M19.7188 60.8955L19.8241 60.8346C19.7886 60.8543 19.7535 60.8746 19.7188 60.8955ZM19.8241 60.8346C21.3207 60.0008 23.4743 60.1279 25.8188 61.4955L34.1187 56.6955C31.7188 55.2955 29.6188 55.1955 28.0188 56.0955L19.8241 60.8346ZM31.8188 81.6955L40.1188 76.8955C41.6188 75.9955 42.6188 74.0955 42.6188 71.3955C42.6188 65.9955 38.8188 59.3955 34.1188 56.6955L25.8188 61.4955C30.5188 64.1955 34.3188 70.7955 34.3188 76.1955C34.3188 78.8955 33.3188 80.7955 31.8188 81.6955Z" fill="#FC05B7" fill-opacity="0.5"/>
</g>
<path d="M61.0003 15.733C61.0003 19.033 63.3003 23.033 66.1003 24.633L57.8003 29.433C55.0003 27.833 52.6003 23.833 52.7003 20.533C55.4003 18.933 58.2003 17.333 61.0003 15.733C58.2003 17.333 55.5003 18.933 52.7003 20.533C52.7003 18.933 53.3003 17.733 54.2003 17.233L62.5003 12.433C61.5003 12.933 61.0003 14.033 61.0003 15.733Z" fill="#9B0070"/>
<path fill-rule="evenodd" clip-rule="evenodd" d="M54.1992 17.233L54.4385 17.0946C54.3559 17.1356 54.2761 17.1817 54.1992 17.233ZM66.1137 12.7825C64.6498 11.9332 63.3821 11.9425 62.4992 12.433L54.4385 17.0946C55.3228 16.6559 56.5274 16.8099 57.8992 17.633L57.9855 17.583C60.7422 19.2126 62.9925 23.1547 62.9994 26.4179C62.6513 26.6215 62.3004 26.8272 61.9494 27.0329L61.9493 27.033C60.4993 27.883 59.0493 28.733 57.7993 29.433C59.2993 30.333 60.5993 30.333 61.4993 29.833L69.7993 25.033C69.6363 25.1145 69.4652 25.1801 69.2871 25.2293L69.7994 24.933C70.6994 24.433 71.2994 23.333 71.2994 21.633C71.3994 18.333 68.9994 14.333 66.1994 12.733L66.1137 12.7825Z" fill="#9B0070"/>
<path d="M57.8998 13.733C62.5998 16.433 66.3998 23.033 66.3998 28.433C66.3998 33.833 62.4998 36.033 57.7998 33.333C53.0998 30.633 49.2998 24.033 49.2998 18.633C49.2998 13.133 53.0998 10.933 57.8998 13.733ZM57.7998 29.433C60.5998 31.033 62.9998 29.733 62.9998 26.533C62.9998 23.233 60.6998 19.233 57.8998 17.633C55.0998 16.033 52.6998 17.333 52.6998 20.633C52.6998 23.833 54.9998 27.833 57.7998 29.433Z" fill="#FC05B7"/>
<path d="M57.9003 17.533C60.7003 19.133 63.1003 23.133 63.0003 26.433C63.0003 29.733 60.7003 31.033 57.8003 29.333C55.0003 27.733 52.6003 23.733 52.7003 20.433C52.7003 17.233 55.0003 15.933 57.9003 17.533Z" fill="#FC05B7"/>
<g filter="url(#filter1_b)">
<path fill-rule="evenodd" clip-rule="evenodd" d="M51.7998 13.133L51.9051 13.0721C51.8696 13.0918 51.8345 13.1121 51.7998 13.133ZM51.9051 13.0721C53.4018 12.2383 55.5554 12.3654 57.8998 13.733L66.1998 8.93297C63.7998 7.53297 61.6998 7.43297 60.0998 8.33297L51.9051 13.0721ZM63.8999 33.933L72.1999 29.133C73.6999 28.233 74.6999 26.333 74.6999 23.633C74.6999 18.233 70.8999 11.633 66.1999 8.93297L57.8999 13.733C62.5999 16.433 66.3999 23.033 66.3999 28.433C66.3999 31.133 65.3999 33.033 63.8999 33.933Z" fill="#FC05B7" fill-opacity="0.5"/>
</g>
<path fill-rule="evenodd" clip-rule="evenodd" d="M74.1992 47.233L74.4385 47.0946C74.3559 47.1356 74.2761 47.1817 74.1992 47.233ZM86.1137 42.7825C84.6498 41.9332 83.3821 41.9425 82.4992 42.433L74.4385 47.0946C75.3228 46.6559 76.5274 46.8099 77.8992 47.633L77.9855 47.583C80.7422 49.2126 82.9925 53.1547 82.9994 56.4179C82.6513 56.6215 82.3004 56.8272 81.9494 57.0329L81.9493 57.033C80.4993 57.883 79.0493 58.733 77.7993 59.433C79.2993 60.333 80.5993 60.333 81.4993 59.833L89.7993 55.033C89.6363 55.1145 89.4652 55.1801 89.2871 55.2293L89.7994 54.933C90.6994 54.433 91.2994 53.333 91.2994 51.633C91.3994 48.333 88.9994 44.333 86.1994 42.733L86.1137 42.7825Z" fill="#05809B"/>
<path d="M77.8998 43.733C82.5998 46.433 86.3998 53.033 86.3998 58.433C86.3998 63.833 82.4998 66.033 77.7998 63.333C73.0998 60.633 69.2998 54.033 69.2998 48.633C69.2998 43.133 73.0998 40.933 77.8998 43.733ZM77.7998 59.433C80.5998 61.033 82.9998 59.733 82.9998 56.533C82.9998 53.233 80.6998 49.233 77.8998 47.633C75.0998 46.033 72.6998 47.333 72.6998 50.633C72.6998 53.833 74.9998 57.833 77.7998 59.433Z" fill="#1CC8EE"/>
<path d="M77.9003 47.533C80.7003 49.133 83.1003 53.133 83.0003 56.433C83.0003 59.733 80.7003 61.033 77.8003 59.333C75.0003 57.733 72.6003 53.733 72.7003 50.433C72.7003 47.233 75.0003 45.933 77.9003 47.533Z" fill="#1CC8EE"/>
<g filter="url(#filter2_b)">
<path fill-rule="evenodd" clip-rule="evenodd" d="M71.7998 43.133L71.9051 43.0721C71.8696 43.0918 71.8345 43.1121 71.7998 43.133ZM71.9051 43.0721C73.4018 42.2383 75.5554 42.3654 77.8998 43.733L86.1998 38.933C83.7998 37.533 81.6998 37.433 80.0998 38.333L71.9051 43.0721ZM83.8999 63.933L92.1999 59.133C93.6999 58.233 94.6999 56.333 94.6999 53.633C94.6999 48.233 90.8999 41.633 86.1999 38.933L77.8999 43.733C82.5999 46.433 86.3999 53.033 86.3999 58.433C86.3999 61.133 85.3999 63.033 83.8999 63.933Z" fill="#1CC8EE" fill-opacity="0.5"/>
</g>
<path fill-rule="evenodd" clip-rule="evenodd" d="M20.1992 27.233L20.4385 27.0946C20.3559 27.1356 20.2761 27.1817 20.1992 27.233ZM32.1137 22.7825C30.6498 21.9332 29.3821 21.9425 28.4992 22.433L20.4385 27.0946C21.3228 26.6559 22.5274 26.8099 23.8992 27.633L23.9855 27.583C26.7422 29.2126 28.9925 33.1547 28.9994 36.4179C28.6513 36.6215 28.3004 36.8272 27.9494 37.0329L27.9493 37.033C26.4993 37.883 25.0493 38.733 23.7993 39.433C25.2993 40.333 26.5993 40.333 27.4993 39.833L35.7993 35.033C35.6363 35.1145 35.4652 35.1801 35.2871 35.2293L35.7994 34.933C36.6994 34.433 37.2994 33.333 37.2994 31.633C37.3994 28.333 34.9994 24.333 32.1994 22.733L32.1137 22.7825Z" fill="#05809B"/>
<path d="M23.8998 23.733C28.5998 26.433 32.3998 33.033 32.3998 38.433C32.3998 43.833 28.4998 46.033 23.7998 43.333C19.0998 40.633 15.2998 34.033 15.2998 28.633C15.2998 23.133 19.0998 20.933 23.8998 23.733ZM23.7998 39.433C26.5998 41.033 28.9998 39.733 28.9998 36.533C28.9998 33.233 26.6998 29.233 23.8998 27.633C21.0998 26.033 18.6998 27.333 18.6998 30.633C18.6998 33.833 20.9998 37.833 23.7998 39.433Z" fill="#1CC8EE"/>
<path d="M23.9003 27.533C26.7003 29.133 29.1003 33.133 29.0003 36.433C29.0003 39.733 26.7003 41.033 23.8003 39.333C21.0003 37.733 18.6003 33.733 18.7003 30.433C18.7003 27.233 21.0003 25.933 23.9003 27.533Z" fill="#1CC8EE"/>
<g filter="url(#filter3_b)">
<path fill-rule="evenodd" clip-rule="evenodd" d="M17.7998 23.133L17.9051 23.0721C17.8696 23.0918 17.8345 23.1121 17.7998 23.133ZM17.9051 23.0721C19.4018 22.2383 21.5554 22.3654 23.8998 23.733L32.1998 18.933C29.7998 17.533 27.6998 17.433 26.0998 18.333L17.9051 23.0721ZM29.8999 43.933L38.1999 39.133C39.6999 38.233 40.6999 36.333 40.6999 33.633C40.6999 28.233 36.8999 21.633 32.1999 18.933L23.8999 23.733C28.5999 26.433 32.3999 33.033 32.3999 38.433C32.3999 41.133 31.3999 43.033 29.8999 43.933Z" fill="#1CC8EE" fill-opacity="0.5"/>
</g>
<path d="M74.0004 83.4954C74.0004 86.7954 76.3004 90.7955 79.1004 92.3955L70.8004 97.1954C67.9004 95.5954 65.6004 91.5954 65.7004 88.2954C68.4004 86.6954 71.2004 85.0954 74.0004 83.4954C71.2004 85.0954 68.5004 86.6954 65.7004 88.2954C65.7004 86.6954 66.3004 85.4954 67.2004 84.9954L75.5004 80.1954C74.6004 80.6954 74.0004 81.8954 74.0004 83.4954Z" fill="#52BA52"/>
<path d="M79.0998 92.3954C80.4998 93.1954 81.7998 93.2954 82.7998 92.7954L74.4998 97.5954C73.5998 98.0954 72.2998 98.0954 70.7998 97.1954C73.2998 95.7954 76.5998 93.8954 79.0998 92.3954Z" fill="#52BA52"/>
<path fill-rule="evenodd" clip-rule="evenodd" d="M75.4992 80.1955L67.1992 84.9955C68.0992 84.4955 69.3992 84.4955 70.8992 85.3955L79.1992 80.5955C77.6992 79.6955 76.3992 79.6955 75.4992 80.1955ZM74.5623 97.5591L82.7994 92.7955C83.6994 92.1955 84.2994 91.0955 84.2994 89.4955C84.3994 86.1955 81.9994 82.1955 79.1994 80.5955L70.8994 85.3955C73.6994 86.9955 75.9994 90.9955 75.9994 94.2955C75.9994 95.8579 75.4273 97.0389 74.5623 97.5591ZM74.5623 97.5591L74.4994 97.5955C74.5205 97.5837 74.5415 97.5716 74.5623 97.5591Z" fill="#9B0070"/>
<path d="M70.9004 85.3955C73.7004 86.9955 76.1004 90.9954 76.0004 94.2954C76.0004 97.5954 73.7004 98.8954 70.8004 97.1954C67.9004 95.5954 65.6004 91.5954 65.7004 88.2954C65.7004 84.9954 68.0004 83.6955 70.9004 85.3955Z" fill="#FC05B7"/>
<g filter="url(#filter4_b)">
<path fill-rule="evenodd" clip-rule="evenodd" d="M64.7998 80.8955L64.9051 80.8345C64.8696 80.8543 64.8345 80.8746 64.7998 80.8955ZM64.9051 80.8345C66.4018 80.0008 68.5554 80.1279 70.8998 81.4955L79.1998 76.6955C76.7998 75.2955 74.6998 75.1955 73.0998 76.0955L64.9051 80.8345ZM76.8999 101.695L85.1999 96.8954C86.6999 95.9954 87.6999 94.0955 87.6999 91.3955C87.6999 85.9955 83.8999 79.3954 79.1999 76.6954L70.8999 81.4954C75.5999 84.1954 79.3999 90.7955 79.3999 96.1954C79.3999 98.8955 78.3999 100.795 76.8999 101.695Z" fill="#FC05B7" fill-opacity="0.5"/>
</g>
<path d="M70.8998 81.4954C75.5998 84.1954 79.3998 90.7955 79.3998 96.1954C79.3998 101.595 75.5998 103.795 70.7998 101.095C66.0998 98.3955 62.2998 91.7955 62.2998 86.3955C62.2998 80.8955 66.1998 78.7954 70.8998 81.4954ZM70.7998 97.1954C73.5998 98.7955 75.9998 97.4954 75.9998 94.2954C75.9998 90.9954 73.6998 86.9955 70.8998 85.3955C67.9998 83.7955 65.6998 85.0955 65.6998 88.3955C65.6998 91.5955 67.9998 95.5954 70.7998 97.1954Z" fill="#FC05B7"/>
<defs>
<filter id="filter0_b" x="15.7188" y="51.5128" width="30.9001" height="34.1826" filterUnits="userSpaceOnUse" color-interpolation-filters="sRGB">
<feFlood flood-opacity="0" result="BackgroundImageFix"/>
<feGaussianBlur in="BackgroundImage" stdDeviation="2"/>
<feComposite in2="SourceAlpha" operator="in" result="effect1_backgroundBlur"/>
<feBlend mode="normal" in="SourceGraphic" in2="effect1_backgroundBlur" result="shape"/>
</filter>
<filter id="filter1_b" x="47.7998" y="3.75036" width="30.9001" height="34.1826" filterUnits="userSpaceOnUse" color-interpolation-filters="sRGB">
<feFlood flood-opacity="0" result="BackgroundImageFix"/>
<feGaussianBlur in="BackgroundImage" stdDeviation="2"/>
<feComposite in2="SourceAlpha" operator="in" result="effect1_backgroundBlur"/>
<feBlend mode="normal" in="SourceGraphic" in2="effect1_backgroundBlur" result="shape"/>
</filter>
<filter id="filter2_b" x="67.7998" y="33.7504" width="30.9001" height="34.1826" filterUnits="userSpaceOnUse" color-interpolation-filters="sRGB">
<feFlood flood-opacity="0" result="BackgroundImageFix"/>
<feGaussianBlur in="BackgroundImage" stdDeviation="2"/>
<feComposite in2="SourceAlpha" operator="in" result="effect1_backgroundBlur"/>
<feBlend mode="normal" in="SourceGraphic" in2="effect1_backgroundBlur" result="shape"/>
</filter>
<filter id="filter3_b" x="13.7998" y="13.7504" width="30.9001" height="34.1826" filterUnits="userSpaceOnUse" color-interpolation-filters="sRGB">
<feFlood flood-opacity="0" result="BackgroundImageFix"/>
<feGaussianBlur in="BackgroundImage" stdDeviation="2"/>
<feComposite in2="SourceAlpha" operator="in" result="effect1_backgroundBlur"/>
<feBlend mode="normal" in="SourceGraphic" in2="effect1_backgroundBlur" result="shape"/>
</filter>
<filter id="filter4_b" x="60.7998" y="71.5128" width="30.9001" height="34.1826" filterUnits="userSpaceOnUse" color-interpolation-filters="sRGB">
<feFlood flood-opacity="0" result="BackgroundImageFix"/>
<feGaussianBlur in="BackgroundImage" stdDeviation="2"/>
<feComposite in2="SourceAlpha" operator="in" result="effect1_backgroundBlur"/>
<feBlend mode="normal" in="SourceGraphic" in2="effect1_backgroundBlur" result="shape"/>
</filter>
</defs>
</svg>
